<?xml version="1.0" encoding="UTF-8"?>
<svg xmlns="http://www.w3.org/2000/svg" width="1200" height="600">
<clipPath id="c">
<path d="M0,0V150H700V300H600zM600,0H300V350H0V300z"/>
</clipPath>
<rect width="1200" height="600" fill="#00247d"/>
<path d="M0,0 600,300M600,0 0,300" stroke="#fff" stroke-width="60"/>
<path d="M0,0 600,300M600,0 0,300" stroke="#cf142b" stroke-width="40" clip-path="url(#c)"/>
<path d="M300,0V350M0,150H700" stroke="#fff" stroke-width="100"/>
<path d="M300,0V350M0,150H700" stroke="#cf142b" stroke-width="60"/>
<path d="M0,300H600V0H1200V600H0z" fill="#00247d"/>
<g id="coa">
<path fill="#5f7dbd" d="M999.47518,257.00973C999.28261,324.85886 988.49561,397.95496 900.00201,432.77273 811.50422,397.95496 800.71722,324.85886 800.52468,257.00973Z"/>
<path fill="#f2d049" d="M999.47518,257.00973C999.55051,231.45203 998.11894,206.638 998.77194,184.89404 965.70351,170.20834 922.19135,167.18814 900.00201,167.18814 877.80851,167.18814 834.29632,170.20834 801.22788,184.89404 801.88088,206.638 800.45352,231.45203 800.52468,257.00973Z"/>
<g id="sea" fill="#9cb8c5">
<path fill="#e8ece9" d="M900.00201,432.77273C940.11944,416.99029 964.26778,393.33529 978.69648,365.8708 976.53658,365.95386 972.01164,365.8251 970.05684,365.69213 967.88018,365.5509 885.20495,357.30863 875.41418,353.7442 866.89591,350.64503 834.39678,356.37806 819.22715,361.75796 833.37962,390.97146 857.89211,416.20509 900.00201,432.77273Z"/>
<path d="m847.78738,392.39643c2.6078,-0.21604 9.68193,-2.2683 10.4396,-2.91637c1.7413,1.18814 4.78863,2.80833 6.09463,2.80833c-2.50316,0.54007 -4.13566,0.21604 -4.78866,-0.216c0.3265,0.75607 1.19716,1.94424 1.74133,2.05224c-2.3943,-0.108 -5.11093,-0.64807 -5.9816,-1.51217c-2.06783,0.8641 -5.55046,1.08013 -7.5053,-0.21603z"/>
<path d="m852.46301,395.63683c0.9251,0.27003 5.5463,1.02613 6.14487,1.02613c-1.52367,1.292 -0.21767,2.53417 2.3399,2.31813c-1.25157,0.16204 -2.61617,0.63147 -1.6869,0.8101c2.23107,0.43207 8.2671,-1.18813 9.46427,-1.83623c-2.06784,2.64633 -12.12647,5.07663 -16.26214,-2.31813z"/>
<path d="m856.59868,402.22149c1.24737,-0.64806 4.3491,-0.43203 5.81837,0.27004c-1.6325,0.5941 -4.8389,0.5941 -5.81837,-0.27004z"/>
<path d="m861.27428,402.11349c2.23107,-0.37806 8.5392,1.13414 10.77027,-0.21603c-0.76184,1.99827 -4.73424,2.2683 -6.09464,1.83623c-1.35623,-0.43206 -2.66223,-0.97213 -3.5873,-0.9181c0.48974,-0.27006 -0.3265,-0.32406 -1.08833,-0.7021z"/>
<path d="m863.55978,405.19186c1.6869,0.2659 7.72293,-0.48603 9.5731,-1.18813c1.9548,0.64806 5.81837,1.67006 6.68903,1.56203c-1.85016,1.13417 -5.38723,0.48607 -6.5258,0c-3.26496,1.08013 -5.93136,1.4042 -9.73633,-0.3739z"/>
<path d="m866.44385,406.20139c2.41523,0.54007 4.4747,0.1537 6.85226,-0.63563c0.7409,0.31573 2.48644,0.7021 4.1273,0.62317c1.0925,0.619 2.56174,1.4831 3.97657,1.59113c-1.46923,0.59407 -6.85647,0 -7.9406,-0.5941c-2.72083,0.054 -7.40063,0.6481 -8.5392,1.5662c-0.0544,-0.7561 0.43953,-1.80713 1.52367,-2.55077z"/>
<path d="m863.55978,394.01663c1.88363,0.62316 8.70243,0.32403 12.1809,-1.29617c1.37297,-0.63977 2.2227,0.43207 0.653,0.97213c-5.65513,1.94424 -10.11727,2.70034 -13.37807,0.9721c-1.28926,-0.6813 -1.41483,-1.29616 0.54417,-0.64806z"/>
<path d="m896.95468,384.83963c-8.37593,3.88433 -13.9264,5.07247 -25.56313,1.5122c-1.08414,-0.33237 -1.85017,0 -0.653,0.7561c1.19716,0.75193 7.6141,2.48013 9.13776,2.58817c1.52367,0.108 0.9795,0.8101 0.0544,1.08013c-0.9251,0.27003 -1.19717,0.9181 0.0544,0.43203c1.25156,-0.48603 8.242,-0.66883 11.09676,0.8101c1.2474,0.6481 1.5739,0.54007 1.46507,0.054c-0.10883,-0.48606 0.54417,-0.81009 1.46923,-0.91813c0.92507,-0.108 1.46924,-0.43203 0.76184,-0.7021c-0.70744,-0.27003 -0.81627,-0.43203 -0.2721,-0.70206c0.54416,-0.27004 0.5986,-0.54007 -0.21767,-0.7021c-0.81623,-0.162 -1.3604,-0.37804 -0.59857,-0.7561c0.76184,-0.37387 1.90457,-0.64807 2.77524,-0.75194c0.21766,-0.59406 -0.16324,-2.16026 0.48973,-2.70033z"/>
<path d="m883.02828,385.81176c4.78863,0.3365 13.5999,-1.83623 18.27973,-6.36866c1.6283,0.96796 3.9138,2.0481 5.11094,2.26413c1.19716,0.21603 2.2855,1.29617 0.43533,1.29617c-1.85013,0 -4.46213,-0.7561 -5.6551,-1.29617c-6.20347,3.78047 -13.4618,5.02263 -18.06207,4.6446c-1.3018,-0.10803 -1.6283,-0.6481 -0.10883,-0.54007z"/>
<path d="m868.88838,359.90096c1.6325,1.13414 4.51657,3.02024 8.26713,2.7502c1.85014,1.45817 4.7342,2.70034 6.0402,2.97037c-2.50313,1.02613 -5.22396,1.89023 -5.93136,2.70033c-1.14277,-1.08013 -2.6078,-0.91813 -2.98874,-1.4582c-1.08833,0.86414 -0.92506,1.4042 -0.21766,1.83624c0.70743,0.43206 6.1993,1.35016 7.5597,0.97213c1.3604,-0.37803 1.72456,0.73947 0.59856,1.13c-2.93846,1.0261 -8.648,0.054 -10.607,-3.07423c-1.959,-3.1324 -3.6459,-4.32057 -8.9745,-1.4582c-0.5986,-1.5122 -0.5986,-1.89024 -1.6325,-1.89024c-1.03393,0 -2.9385,-1.35016 -1.46926,-1.29616c1.46926,0.054 5.82256,-0.59407 9.35543,-3.18224z"/>
<path d="m870.19438,366.86366c-0.90833,0.22434 -3.48263,1.62024 -4.40353,1.72824c-0.92507,0.108 -2.55757,1.40416 -0.87067,1.45816c1.68273,0.054 3.85937,-1.7822 5.05653,-1.94423c1.19717,-0.16203 1.306,-1.5122 0.21767,-1.24217z"/>
<path d="m875.46858,372.3142c-0.6446,0.11216 -3.42403,0.7561 -4.18587,0.7021c-0.76183,-0.054 -1.52366,0.16203 -1.46923,0.7021c0.0544,0.54006 0.27207,0.8641 -0.87067,0.75606c-1.14273,-0.108 -2.12223,0.32407 -2.39433,0.6481c-0.27207,0.32404 -0.48973,0.64807 0.653,0.7561c1.14277,0.108 1.74133,0.21604 3.04733,-0.37806c1.306,-0.59407 2.55757,-1.51217 3.9724,-1.5662c1.41064,-0.054 2.82547,-1.89024 1.24737,-1.6202z"/>
<path d="m871.55481,375.66263c1.18877,0.7644 7.06994,2.75433 9.19217,2.59233c2.12223,-0.16203 1.72457,0.84334 0.10883,1.18814c-3.3194,0.69793 -7.37133,-0.7353 -10.11726,-2.91637c-1.3604,-1.08013 -0.10884,-1.45817 0.81626,-0.8641z"/>
<path d="m899.40345,378.525c-4.49984,1.42493 -9.08337,0.9181 -10.93354,0.43203c-1.85013,-0.48603 -3.53706,-0.59407 -2.28546,0.5941c1.25156,1.18397 5.27836,1.9941 7.55966,1.4c-8.10383,1.83623 -10.22606,1.67423 -12.2353,1.35017c-2.0134,-0.32404 -5.79326,-0.2534 -7.39643,-0.108c-1.19717,0.108 -2.82967,-0.054 -3.53707,-0.48607c-0.70743,-0.43203 -0.9251,-1.24217 1.19717,-1.02613c2.11803,0.21603 2.3943,-0.21604 0.54413,-0.48607c-1.85013,-0.27003 -4.4077,0.48607 -1.90456,2.05227c2.50316,1.5662 7.99503,-0.108 11.47766,0.8641c3.47847,0.97213 10.87494,1.67423 17.89464,-3.94247c0.36,-0.28667 0.9795,-1.076 -0.3809,-0.64393z"/>
<path d="m877.31875,371.93616c0.16326,0.54007 0.16326,1.13414 0,1.5122c-0.16324,0.37804 -0.16324,0.8641 0.54416,0.32404c0.7074,-0.54007 1.14274,-1.18817 1.85017,-0.8101c0.7074,0.37803 2.50313,0.32403 3.3152,0.21603c0.82043,-0.10803 1.08833,-0.27003 -0.10463,-0.7561c-1.19717,-0.48607 -2.39434,-0.6481 -3.04734,-0.5941c-0.653,0.054 -1.46923,-0.108 -2.0134,-0.32403c-0.54416,-0.21604 -0.7074,-0.108 -0.54416,0.43206z"/>
<path d="m888.90525,374.04243c-0.92507,0.054 -2.55757,-0.54007 -3.42824,-0.91813c-0.87066,-0.37804 -2.11803,-0.43204 -1.19296,0.8101c0.9209,1.24216 4.9477,1.94426 6.36253,1.3502c1.41483,-0.5941 0.81623,-1.24217 2.2269,-0.37807c1.4148,0.8641 2.88407,1.4582 3.91797,1.4582c1.0339,0 1.41483,0 0.27206,-0.6481c-1.14273,-0.64807 -1.6869,-0.8101 -1.79573,-1.35017c-0.10883,-0.54006 -0.27207,-0.8641 0.76183,-0.54006c1.0339,0.32403 2.23107,0.9181 3.04734,0.48606c0.81623,-0.43206 2.3357,-1.40416 3.6961,-1.40416l0.3265,-0.8101c-1.95897,-0.16204 -3.20637,0.43203 -3.75054,0.64806c-0.54416,0.21604 -1.52366,0.32404 -2.55756,0.16204c-1.0339,-0.16204 -2.39434,-0.27004 -2.72084,-0.54007c-0.3265,-0.27003 -0.3265,-0.48607 0.54417,-0.6481c0.87067,-0.16203 1.14277,-0.7561 -0.0544,-0.54007c-1.19717,0.21604 -4.40353,0.108 -6.09047,-0.43206c-1.6869,-0.5359 -2.3943,-0.5899 -3.10173,-0.32404c-0.7074,0.27004 -0.59857,1.02614 0.43533,1.08014c1.03394,0.054 3.37384,0.27003 4.19007,1.02613c0.81623,0.7561 0.7074,0.8101 -0.21767,0.43207c-0.92506,-0.37807 -2.61196,-0.16204 -0.87066,1.08013z"/>
<path d="m903.09955,372.0982l-0.3265,0.8101c2.01343,-0.054 6.9109,0.43203 8.4848,1.40416c1.52363,-1.18816 1.25156,-1.5662 2.3399,-1.35016c1.08833,0.21603 2.44873,0.59406 3.0473,0.27003c0.5986,-0.32403 1.03393,-0.27003 1.6869,-0.16203c0.64883,0.10803 2.06366,-0.162 2.8799,-0.64807c0.81623,-0.48607 2.50316,-1.13417 3.48263,-1.13417c0.9795,0 2.1725,-0.216 0.38093,-0.48603c-1.79573,-0.27003 -4.51656,0.27003 -5.44163,0.59407c-0.9209,0.32403 -3.69613,0.54006 -5.32863,0.54006c-1.6325,0 -3.85937,0.8101 -5.70954,0.32404c-1.85016,-0.48607 -4.40773,-0.162 -5.49606,-0.162z"/>
<path d="m928.28178,371.12606c-3.2608,2.3763 -7.17877,2.91637 -11.8544,3.2404c-1.3604,0.0956 -0.9418,0.47777 0.21767,0.59407c4.8933,0.48607 10.5526,-1.29617 12.39856,-3.2404c0.5358,-0.56083 0.4772,-1.4914 -0.76183,-0.59407z"/>
<path d="m906.03805,376.63476c1.41483,0.054 6.3081,1.29617 7.8862,1.83624c1.19713,-0.10804 1.52363,-0.37807 1.30596,-0.81014c-0.21766,-0.43203 -0.3809,-0.9181 1.79577,-0.8101c2.17247,0.10804 7.17877,0.054 8.10383,0.054c0.76184,-0.32407 2.44457,-1.6202 3.2064,-1.67424c-1.9548,0.10804 -10.11306,0.54007 -11.147,0.43207c-1.0339,-0.108 -1.57806,0 -2.23106,0.37803c-0.653,0.37807 -1.0339,0.54007 -1.85017,0.21604c-0.81623,-0.32404 -2.28547,-0.7561 -3.09753,-0.27004c-0.81627,0.48607 -2.50317,0.054 -3.9724,0.6481z"/>
<path d="m925.12981,376.9048c0.76184,-0.32407 2.44457,-1.6202 3.2064,-1.67424c1.41484,-0.108 3.0473,0.48607 3.80914,0.5941c0.76183,0.108 1.57806,-0.054 1.03393,-0.6481c-0.54417,-0.59406 -0.0544,-1.6202 2.17663,-1.35016c2.2269,0.27003 3.36963,0.64806 5.5463,0.43206c2.17663,-0.21603 3.15613,1.40417 7.2876,-0.21603c-0.3265,1.6202 0.43533,1.7282 1.19717,1.40417c0.76183,-0.32404 1.6325,-0.21604 2.93846,0.7561c1.306,0.97213 9.2466,1.08013 11.09677,0.7561c1.84597,-0.32404 2.82547,0.64806 1.41063,1.08013c-1.41063,0.43207 -1.7413,1.08013 -1.41063,1.5122c0.32233,0.4279 0.6488,0.96797 -1.08833,0.75193c-1.7413,-0.21603 -2.0678,0.32404 -2.93847,0.97214c-0.87067,0.64806 -1.08833,0.8641 -3.48267,0.43203c-2.39013,-0.43203 -2.82546,-0.108 -4.13143,0.10803c-1.306,0.216 -1.6325,0.216 -2.9385,-0.21603c-1.306,-0.43207 -4.13147,-0.86413 -5.8728,-0.32403c-1.7413,0.54006 -3.0473,1.08013 -4.57097,0.64806c-1.52366,-0.43206 -1.6325,-0.21603 -0.653,-1.18816c0.9795,-0.9721 1.19717,-0.8641 3.04734,-1.08014c1.85016,-0.21186 3.26496,-0.75193 1.959,-1.50803c-1.306,-0.7561 -1.74134,-0.64807 -3.48267,0.21603c-1.74133,0.8641 -2.612,1.40004 -4.5668,0.32404c-1.95896,-1.08014 -2.93846,-0.8641 -4.24446,-0.54007c-1.306,0.32407 -3.47847,-0.43203 -5.32864,-1.24213z"/>
<path d="m931.65561,380.14103c-2.4906,0.35313 -3.16033,-1.238 -5.76396,-0.91397c-0.87067,0.10804 -2.3399,1.184 -0.3265,1.022c2.00923,-0.16203 4.1859,0.9181 6.14486,0.75607c1.959,-0.162 1.08834,-1.0261 -0.0544,-0.8641z"/>
<path d="m928.77155,382.03126c1.31016,-0.4736 4.0268,0.43207 5.16953,0.21604c1.14276,-0.21604 2.2311,0.48606 1.03393,0.8641c-1.19716,0.37806 -4.08123,-0.70207 -5.38723,-0.32404c-1.306,0.37807 -2.6078,-0.108 -0.81623,-0.7561z"/>
<path d="m902.77305,388.994c1.79576,0.0582 8.26713,-0.21604 10.8247,-5.61257c0.19673,-0.41543 0.3809,-0.59407 1.19716,-0.054c0.81624,0.54007 3.80914,2.3223 9.40984,2.80837c1.5697,0.1371 3.265,0.9181 0.10883,0.70206c-3.15617,-0.216 -8.15827,-1.08013 -9.84517,-2.10623c-2.82966,4.4244 -7.91133,4.94783 -11.69536,4.85643c-2.2813,-0.054 -1.73714,-0.64806 0,-0.59406z"/>
<path d="m916.75388,381.65323c-0.87067,1.18813 -3.86357,3.2404 -5.22397,3.34843c-1.35623,0.108 -5.43746,-0.27003 -6.47136,-0.6481c-1.0339,-0.37803 -2.2855,-0.27003 -0.81624,0.7561c1.46924,1.02614 5.11514,1.7282 6.5802,1.40417c1.46924,-0.32403 3.15614,-0.8101 4.29887,-0.108c1.14277,0.7021 3.265,2.0481 4.5124,1.77807c1.25157,-0.26587 3.80913,-0.26587 4.62537,0.108c0.81626,0.37806 2.2311,1.5122 0.10883,0.86413c-2.12223,-0.6481 -3.86353,-0.10803 -4.84303,-0.54007c1.08833,1.51217 3.558,3.94247 5.6593,3.94247c0.48973,0 0.81623,0.86413 -0.21767,1.3502c1.0339,0.48603 3.42403,0.8641 4.67563,-0.27004c-0.3265,0.43204 -0.16326,0.70207 0.3809,0.9721c0.54417,0.27004 1.19717,0.6481 0.21767,0.7561c-0.9795,0.108 -3.20637,0.37804 -3.85937,0.108c2.11804,1.34604 7.6141,3.5063 13.2148,2.42617c1.0674,-0.20357 1.6325,-0.64393 -0.10883,-0.59407c-3.59147,0.108 -3.80497,0.054 -4.45797,-0.3199c-0.653,-0.3822 -0.54417,-0.7021 0.48977,-1.02613c1.0297,-0.32403 3.6417,-0.70207 4.73003,-0.70207c1.08833,0 2.17667,-0.43206 -0.0544,-0.43206c-2.23107,0 -4.9477,0 -6.03604,-0.37804c-1.08829,-0.37806 -1.90456,-0.86413 -0.76179,-1.62023c1.14273,-0.75607 2.33989,-0.54007 2.88406,-1.24213c-3.5915,-0.054 -7.99923,-1.94427 -5.5505,-3.6683c0.5693,-0.403 0.38094,-0.43207 -0.54413,-0.54007c-0.9251,-0.10803 -3.64173,-0.86413 -4.78447,-1.5122c-1.14276,-0.6481 -0.38093,-1.18816 0.54417,-1.35016c-2.12223,0.37803 -6.36673,-0.7561 -9.1922,-2.86237z"/>
<path d="m948.67958,381.54523c-1.959,1.45817 -5.65514,2.05223 -7.2332,2.05223c-1.5781,0 -1.79577,0.54007 -0.54417,0.7021c1.25157,0.16204 2.61197,0.32404 3.15613,0.16204c0.54417,-0.16204 0.87067,-0.21604 1.68274,0.162c0.81623,0.37806 2.55756,0.59406 4.08123,0.10803c1.52367,-0.48607 4.02263,-0.7021 5.05653,-0.6481c1.0339,0.054 2.17667,0.10803 0.10884,-0.48607c-2.06364,-0.59406 -5.43747,-0.162 -6.2537,0.054c-0.81624,0.21604 -3.04734,0.054 -1.85017,-0.32403c1.19717,-0.37803 2.23107,-0.9721 2.82967,-1.45817c-0.43534,-0.10803 -0.70744,-0.21603 -1.0339,-0.32403z"/>
<path d="m947.64564,385.75773c-1.6869,1.24217 -4.13146,2.42617 -6.6346,2.53417c2.28547,0.8101 4.19007,3.1324 5.6551,3.0244c-0.7074,0.43203 -1.57386,1.08013 -2.49896,1.18813c1.41483,0.37806 3.80496,-0.054 5.76396,-1.13413c3.26497,0.91809 7.50527,0.32403 8.9201,-0.8641c-2.12223,0 -4.67563,-0.7561 -5.81836,-1.72824c1.0339,0 2.0092,-0.64806 2.49896,-1.238c-2.44456,0.4279 -6.63463,-0.7561 -7.8862,-1.78223z"/>
<path d="m944.16718,392.50443c0.9251,-0.108 1.79156,-0.7561 2.49896,-1.18813c-1.79153,0.59406 -9.6275,-0.6481 -11.96323,-2.70034c-2.3399,-2.04813 -2.3399,-0.48606 -0.7074,0.9721c1.6325,1.4582 4.51237,3.67247 10.17167,2.91637z"/>
<path d="m949.93114,397.46889c-0.9795,0.54007 -5.65513,0.86414 -7.17876,0.54007c-1.52367,-0.32403 -2.17667,-0.162 -1.79577,0.43207c0.38093,0.59406 0.54417,1.13413 -0.7074,0.97213c-1.25157,-0.16203 -3.48267,0.108 -4.40353,0.43203c-0.9251,0.32407 -2.06783,1.13417 -0.10884,0.8101c1.9548,-0.32403 3.75054,-0.70206 5.21977,-0.32403c1.46927,0.37807 6.68903,0.48607 7.72297,0.054c1.0339,-0.43203 0.32646,-0.43203 -0.16327,-0.43203c-0.48973,0 -0.7074,-0.32407 0,-0.6481c0.7074,-0.32404 1.25157,-1.24214 1.41483,-1.83624z"/>
<path d="m904.67765,391.20826c-1.959,0.86413 -8.48477,2.59233 -10.2261,2.70037c-2.17667,0.9721 -3.9138,1.51216 -5.00214,1.51216c0.76184,0.6481 3.69614,1.292 4.8933,0.97214c-0.653,0.64393 -2.17246,1.40003 -2.71663,1.72406c1.73713,-0.21603 3.80497,0.21604 4.67563,0.32404c-2.2855,1.29616 -5.43746,1.72823 -7.06996,1.5122c0.54416,0.7561 1.306,1.51216 2.2855,1.51216c-2.06784,0.54007 -4.57097,0.54007 -5.87697,0.10804c0.54417,1.08013 1.08833,1.7282 1.85013,1.83623c-1.7413,0.21603 -3.91796,0.54007 -5.76393,-0.54007c1.41063,1.83624 4.5668,2.48014 9.2466,1.94424c4.67563,-0.54007 8.5936,-2.59234 9.68193,-3.45644c-1.959,0.21604 -4.57096,0.32404 -5.87696,0.108c2.61196,-0.64806 8.2671,-3.02436 9.2466,-3.9965c-1.08834,0 -2.17247,-0.32403 -2.9385,-0.8641c1.52366,0.21604 6.85646,-0.4279 8.48896,-1.07596c-1.959,-0.43207 -3.15616,-1.6202 -3.70033,-2.3763c6.8523,2.16026 14.47897,1.45403 18.16673,0.54006c0.87064,-0.21603 0.9753,-1.3128 -0.76183,-1.18816c-3.04733,0.21603 -8.9201,-0.64807 -10.44377,-1.40417c1.41484,1.08013 3.15614,1.7282 4.3533,1.94423c-2.82963,0.7561 -6.74343,1.29617 -12.51156,-1.83623z"/>
<path d="m891.62608,398.11699c0.54417,-0.32403 2.06363,-1.08013 2.71663,-1.72406c-1.19716,0.31986 -4.13146,-0.32404 -4.8933,-0.97214c1.08834,0 2.82547,-0.54006 5.00214,-1.51216c-3.9138,-0.10804 -6.63464,-0.10804 -8.04944,-0.86414c-1.41483,-0.7561 -4.02263,-0.54006 -5.00213,-0.32403c-0.9795,0.21603 -0.653,1.83623 3.47847,1.40417c-1.74134,1.18816 -6.41697,1.6202 -8.15827,1.18816c0.43533,1.4 0.76183,2.8042 0.3265,3.5603c2.28547,1.29617 8.2671,2.91637 11.20557,2.70034c-2.61197,-0.97214 -4.0268,-2.05227 -1.85014,-2.2683c2.17664,-0.21604 3.3738,-0.64807 5.22397,-1.18814z"/>
<path d="m884.87845,405.13786c5.20723,-0.43203 12.1809,-0.52343 17.73136,-5.18463c1.41484,-1.18817 2.36504,-0.78934 0.9795,0.43203c-2.9343,2.59233 -10.2261,6.15263 -17.1872,6.26063c-2.83386,0.0457 -4.13146,-1.29616 -1.52366,-1.50803z"/>
<path d="m923.87825,396.60479c-1.306,0.48607 -4.9519,1.08014 -6.03604,0.91814c-1.08833,-0.16204 -2.6664,-0.21604 -3.53706,0.32403c-0.87067,0.54007 -0.92507,0.8641 0.2721,0.9721c1.19713,0.10803 2.7208,0.21603 3.48263,0.16203c-0.9795,0.54007 -1.6325,1.29617 -1.85017,1.6202c1.74134,-0.43203 4.9477,0.32404 5.8728,0.8641c-0.70743,0.21604 -1.52366,-0.054 -2.12223,-0.37803c2.93847,3.0784 11.6409,3.0784 13.05573,2.53833c-0.653,0.48604 -1.25156,0.9721 -1.90456,1.13414c2.44873,0.43203 5.27419,0.37803 8.04943,-1.24217c-0.92507,0.16203 -3.69614,-0.108 -4.40354,-0.162c0.54417,-0.54007 1.35624,-1.02613 2.11804,-1.24217c-1.08414,-0.21603 -4.51237,-0.10803 -5.3286,0.32404c0.3265,-0.64807 0.92507,-1.45817 1.57807,-1.7282c-4.2989,0 -9.51867,-0.054 -11.42327,-1.08017c3.04733,0.32407 6.42113,-1.45817 7.8318,-1.45817c-2.39013,-0.054 -5.00213,-0.59406 -5.65513,-1.5662z"/>
<path d="m912.94475,398.98109c-2.12224,0.43207 -5.32864,1.29617 -6.1993,1.78224c-0.87067,0.48606 -1.79574,0.7561 0.10883,0.7561c1.9046,0 7.06997,0.216 8.2127,0.37803c-2.88407,-0.43207 -6.79787,-0.54007 -7.5597,-0.54007c-0.76183,0 -1.6325,-0.054 -0.21767,-0.48606c1.41484,-0.43204 3.265,-1.40417 5.65514,-1.89024z"/>
<path d="m908.65005,404.00373c0.75763,0 4.07703,0 5.38303,-1.13414c1.3604,1.02614 3.9724,2.48014 5.6551,2.48014c1.6869,0 1.52367,0.43206 0.0544,0.5941c-1.46506,0.162 -4.34913,-0.69794 -5.81836,-1.77807c-1.959,0.70207 -3.5873,0.108 -5.2742,-0.16203z"/>
<path d="m883.46781,418.52326c3.36964,1.29613 7.83177,2.26827 11.09257,1.18813c1.85017,1.6202 5.6593,1.7282 7.72293,1.29617c2.06784,-0.43207 3.91797,-0.6481 6.20347,0.108c2.2813,0.7561 6.9611,0.8101 8.2671,1.8861c-1.19717,0.0582 -3.75473,0 -4.3533,0.16617c-0.5986,0.15786 -0.2721,0.5359 0.81623,1.13c-3.69613,-0.21604 -10.06283,1.35016 -12.01763,3.02436c0.70323,-1.6742 2.87987,-3.9425 6.3081,-3.9425c-1.95897,-0.69793 -8.21267,-0.75193 -10.2261,0.48607c-0.59857,-0.64807 -1.30597,-1.72407 -1.3604,-2.1561c-3.3152,1.88607 -9.84517,-0.81013 -12.45297,-3.1864z"/>
<path d="m874.81558,412.47863c4.01427,-0.56914 6.74763,-1.83624 7.9448,-3.02437c0.70743,0.64807 3.64173,1.29617 6.8523,0.32403c-0.653,0.48607 -0.70743,1.40417 -0.43533,1.89024c-2.12224,0.054 -6.14907,1.08013 -7.5053,1.78223c-1.3604,0.69793 -5.3328,1.184 -6.6346,0.4819c-1.306,-0.69793 -1.3604,-1.292 -0.22187,-1.45403z"/>
<path d="m889.17735,411.66853c-2.12224,0.054 -6.14907,1.08013 -7.5053,1.78223c0.2721,0.54007 0.43533,1.40003 0.48976,1.9941c3.9138,-1.40417 12.8883,-2.26413 16.31654,-1.72407c-1.6325,0.108 -4.73424,1.77807 -6.47137,1.9941c4.2403,-0.32403 8.37593,0.54007 9.4601,0.8101c1.0883,0.27004 1.30597,1.08014 0.48973,1.83624c-0.81623,0.7561 -1.19296,0.8641 0.54417,0.9181c1.74133,0.054 5.3328,-0.162 6.9653,-1.7282c-0.653,-0.7021 -2.3399,-0.43207 -2.82967,-0.91814c1.14277,-0.37803 2.44874,-1.18813 2.9385,-1.7822c-2.9385,-0.054 -4.0268,-0.10803 -5.0063,-0.32406c-0.9795,-0.21187 -1.68693,-0.48604 -0.48976,-1.12997c1.19716,-0.6481 1.74133,-1.18817 2.12223,-1.6202c-2.12223,0.59407 -5.43743,1.08013 -8.21267,-1.08013c1.0339,0.27003 3.47847,0.108 4.34914,-0.27004c-0.9251,-0.48606 -1.68274,-0.86413 -2.44457,-0.86413c2.2269,-1.08013 6.6346,-2.05223 12.07207,0.10803c2.72083,-0.21603 5.6593,-0.10803 7.72293,0.43204c0.87067,-0.8641 2.72083,-2.91637 3.70033,-3.45644c-6.41696,0.54007 -17.94903,-0.64806 -17.73136,-3.99233c-2.06784,2.69617 -6.8523,4.20837 -8.92014,3.77633c-0.21766,0.9721 0.653,2.16027 1.41484,2.80834c-2.17664,0.43206 -5.87697,0.7561 -7.6141,0.43206c0.9795,0.9721 2.82546,1.83624 3.9138,1.7282c-2.2813,0 -3.47847,0.43207 -5.2742,0.27004z"/>
<path d="m902.50098,419.27933c1.74133,0.054 5.3328,-0.162 6.9653,-1.7282c-0.653,-0.7021 -2.3399,-0.43207 -2.82967,-0.91814c1.14277,-0.37803 2.44874,-1.18813 2.9385,-1.7822c4.5668,-0.3739 8.64804,-0.15786 10.60284,-0.75196c1.95896,-0.59407 6.9653,-0.27004 7.94476,-0.54007c-4.3533,0.69793 -5.22396,1.076 -5.44163,1.77807c-0.21767,0.7021 1.41483,1.29616 2.44873,1.29616c-1.95896,-0.108 -4.4077,1.94427 -4.62536,2.75437c-2.6078,-1.5122 -3.8594,0.27003 -4.13147,0.8641c-1.08833,-0.43207 -4.6798,-0.32403 -6.52997,1.24217c-2.39013,-0.7021 -3.96823,-1.08014 -6.36253,-0.7021c1.46923,-0.32404 1.19717,-1.29617 -0.9795,-1.5122z"/>
<path d="m923.38851,406.64589c1.46924,-0.054 4.6756,0.10804 5.81837,-0.054c-0.76183,0.37807 -1.73713,1.08014 -1.9548,1.40417c3.6961,-0.43203 8.75266,-0.70207 10.2219,-0.48603c-1.79157,-0.27004 -3.64173,0.8641 -4.5668,1.45816c-0.92507,0.59407 -0.3809,0.97214 0.87067,1.13414c1.25156,0.16203 2.93849,1.13416 0.65299,0.8101c-2.28549,-0.32404 -6.79786,-0.32404 -7.88619,-0.162c-1.08834,0.162 -1.6869,-0.37807 -0.10884,-0.59407c1.57807,-0.21603 2.66224,-0.7561 3.42407,-1.18817c-1.306,0.32404 -3.80497,0.32404 -4.5668,0.108c-0.76183,-0.216 -1.25157,-0.64806 -0.38093,-0.8641c0.87066,-0.21603 0.2721,-0.54006 -0.653,-0.43203c-0.92507,0.108 -3.26497,1.08013 -4.57097,2.32227c1.41483,-1.45817 2.6664,-2.75434 3.70033,-3.45644z"/>
<path d="m906.79988,409.07619c1.79573,1.99827 3.9138,3.1324 7.2876,3.24044c0.70743,0.0208 2.02597,0.9638 0.3265,1.02613c-4.57097,0.162 -6.85227,-0.91813 -8.86567,-3.8345c-0.41443,-0.59823 0.3516,-1.43327 1.25157,-0.43207z"/>
<path d="m934.04991,371.3421c2.4027,1.12583 7.2332,2.10626 10.98793,1.94423c0.653,-0.0291 1.96737,0.6647 0.32234,0.8101c-4.2403,0.37803 -8.04947,-0.21187 -11.58233,-2.16027c-0.9795,-0.54006 -0.653,-1.02613 0.27206,-0.59406z"/>
<path d="m936.49868,371.28806c3.6961,-0.108 6.47133,-0.054 7.6141,1.02614c2.11803,-0.64807 5.9272,-1.02614 6.79786,-0.8641c0.87067,0.16203 1.85014,-0.21604 -0.16326,-0.7021c-2.0134,-0.4819 -6.68904,-0.6439 -8.15827,-0.37387c-1.46923,0.26587 -6.04023,0.4279 -7.5597,0.26587c0.653,0.108 1.08417,0.21603 1.46927,0.64806z"/>
<path d="m950.85621,372.74626c1.74133,-0.91813 6.74347,-0.054 8.2671,-0.7021c-1.0883,1.29617 3.48267,1.4042 7.45087,0.37807c-1.52367,0.9721 -4.78447,1.13413 -6.19927,1.7282c-1.41483,0.59407 -2.17667,0.16203 -3.265,-0.32403c-1.08833,-0.48607 -3.85937,-1.45817 -6.2537,-1.08014z"/>
<path d="m966.57418,372.42223c-3.9682,1.02613 -8.53917,0.9181 -7.45087,-0.37807c-1.52363,0.6481 -6.52577,-0.21603 -8.2671,0.7021c1.79573,-1.08013 3.15617,-0.21603 4.45797,-2.4303c0.81623,0.16617 2.72083,0.27417 3.3738,-0.58993c1.14276,0.27003 3.15616,0.7561 3.75473,1.34603c0.5986,0.59407 1.5195,-0.16203 0.75767,-1.076c1.79573,-0.64806 0.65716,0.76857 4.84303,-0.27003c0.87067,-0.21603 2.9929,-0.59407 3.70033,-0.64807c-1.41483,1.13414 -3.10173,2.37214 -5.16956,3.34427z"/>
<path d="m964.77844,384.5156c-1.35623,0.9181 -3.15196,2.5383 -1.959,4.80243c0.14234,-0.0748 0.27627,-0.162 0.4144,-0.24093c5.32027,-6.38944 9.8745,-13.10704 13.77574,-20.0864c0.046,-0.24094 0.0879,-0.46944 0.1172,-0.66884c-1.52367,1.29617 -3.91797,2.58817 -4.89747,2.9122c0.653,1.72824 -2.39013,3.9965 -4.02263,4.6446c0.653,1.08014 0.43533,2.70034 -0.9795,3.02437c0.3265,0.96797 -0.76184,0.96797 -2.06784,1.50803c-1.30596,0.54007 -1.95896,0.97214 -2.39013,1.6202c0.70323,-0.37803 1.68273,-0.70206 2.2269,-0.54006c0.54417,0.16203 0.653,0.97213 -0.3265,1.18816c-0.9795,0.21604 -1.6283,0.7561 -1.959,1.18814c1.41483,-0.54007 3.42823,-0.27004 2.06783,0.6481z"/>
</g>
<g id="rocks" fill="#b38c79">
<path fill="#9b7463" d="M838.15568,390.70976C839.50775,390.27353 842.09042,390.3774 843.10758,390.5602 844.30475,390.77623 844.52242,390.88423 844.95775,389.58806 845.39308,388.2919 846.37258,388.61596 847.13442,389.26403 847.89622,389.9121 849.85105,389.58806 850.61285,388.50793 851.37468,387.43196 851.59235,387.53996 852.35418,388.2919 853.11601,389.048 853.44251,388.83196 854.20435,388.61596 854.96618,388.40406 856.27218,387.53996 856.92515,386.35183 857.57815,385.16366 858.55348,384.73163 859.09765,385.3797 859.64178,386.02776 860.18595,386.35183 860.94778,386.2438 861.70961,386.1358 861.92728,386.8919 861.81845,387.85986 861.70961,388.83196 862.14495,389.048 863.99511,387.53996 865.62761,389.15603 866.16758,388.50793 866.16758,386.78386 866.16758,385.05566 865.73645,378.687 865.08345,377.8229 864.43045,376.9588 863.77745,374.47446 863.66861,372.53023 863.46351,368.86193 863.45095,368.6459 858.98881,366.37763 858.98881,365.08146 858.66231,364.5414 855.51035,364.7574 855.61918,364.32536 855.07501,363.0292 854.42201,362.48913 853.76901,361.94906 853.66018,361.73303 853.98668,360.225 855.29268,360.333 856.70748,360.117 857.46931,359.03683 858.22698,357.9567 860.73011,358.17273 862.25378,358.82083 863.77745,359.4689 865.73645,359.57693 868.67075,359.14486 869.75905,358.28076 871.60921,357.30863 873.56821,356.2285 875.52301,355.14836 876.06718,354.7163 876.17601,353.20413 876.45645,349.3281 875.08768,344.89123 873.99935,342.84313 872.91521,340.79086 872.58871,338.19853 871.06505,334.95813 869.40745,331.43106 869.43255,330.53373 867.58241,328.37346 867.07591,327.77936 866.49408,327.29333 866.38525,326.10933 866.27641,324.92116 865.84108,323.30096 864.53928,322.11283 861.24918,319.11753 859.96828,309.4794 858.66231,302.35463 857.91301,298.2709 858.44465,288.64523 856.70748,287.13303 853.76901,284.75673 852.35418,285.1888 850.39518,284.4327 848.98038,282.48847 848.33155,278.60413 847.02558,275.1477 844.95775,275.47173 843.54292,277.632 842.12808,278.3881 840.71328,279.1442 840.49562,279.1442 840.49562,281.08843 840.49562,283.02853 839.40728,285.72887 837.45248,288.75323 835.49348,291.77347 832.22848,290.91353 829.51185,295.44593 823.52605,288.21317 823.41722,286.16093 822.98188,284.10867 822.54655,282.06057 821.56708,281.6285 818.19745,278.71213 818.19745,277.84803 817.76212,274.39573 818.08862,272.4515 815.58545,270.39923 813.73528,270.7233 812.54232,272.23547 811.34515,273.74767 810.47448,276.0118 808.62435,276.8759 807.51508,278.27593 804.17058,281.80713 801.43302,286.01137 803.92362,323.58346 812.46698,360.8814 838.15568,390.70976Z"/>
<path d="M805.90352,286.59297C806.99185,288.3212 808.95085,291.29157 809.16852,292.9076 809.93035,291.34143 810.52892,290.6435 810.69215,289.67137 810.85542,288.69923 811.99815,286.809 811.56282,285.78287 811.12748,284.75673 810.80098,283.94663 811.99815,284.70273 813.19112,285.45883 812.96092,286.76747 812.70138,288.69923 811.99815,293.98777 809.76708,295.0679 809.44058,298.63233 812.65115,306.13513 810.25685,308.83546 813.73528,316.17623 814.27945,316.50026 815.73195,315.9228 816.16728,316.03083 818.01325,314.73466 819.39462,315.2041 822.00242,315.74416 824.61438,316.28423 826.02922,318.11633 826.02922,319.73653 826.02922,321.35673 826.02922,321.7888 826.57338,322.7609 827.11755,323.73303 828.20588,325.24523 827.98822,326.32536 827.77055,327.40133 828.20588,328.0494 828.53238,328.5895 828.85888,329.12956 828.42355,330.3177 828.09705,331.0738 827.77055,331.8299 827.87938,332.802 829.18535,334.42223 830.49135,336.03826 833.53448,342.84313 833.53448,346.83546 833.53448,350.83196 833.75215,352.6682 835.38465,353.42013 837.01715,354.17623 837.56132,354.82433 837.34365,356.55253 837.12598,358.28076 838.10548,367.24173 838.32312,368.6459 838.54078,370.05006 839.08495,369.72603 839.73795,370.48213 840.38678,371.23406 840.82212,372.0982 842.99875,372.0982 845.17542,372.0982 847.27672,371.81153 848.69155,372.02756 850.65055,374.7279 851.84768,378.3962 852.28301,380.6645 852.71835,382.93276 852.68068,386.02776 853.44251,386.02776 854.20435,386.02776 854.96618,386.1358 854.74851,383.32743 854.53085,380.5191 854.31318,380.08703 853.33368,378.687 852.35418,377.28283 851.81001,376.63476 852.35418,375.77063 852.89835,374.90653 853.00718,373.50236 852.78951,372.42223 852.57185,371.3421 852.24535,369.72603 854.09551,371.88216 855.94568,374.04243 856.48985,374.5825 857.03398,375.3386 857.57815,376.0947 857.79165,377.49886 857.68698,378.79503 857.57815,380.08703 857.79165,380.6271 858.55348,379.97903 859.31531,379.3351 860.29478,380.41106 859.85945,381.81526 859.42411,383.21943 859.96828,384.08353 861.27428,384.5156 862.58028,384.94763 863.12445,385.2717 863.45095,386.2438 863.77745,387.21593 864.86578,387.64383 864.86578,385.70373 864.86578,383.7595 864.10395,379.65496 863.55978,378.36296 863.01561,377.0668 862.58028,374.25846 862.47145,372.63826 862.36261,371.01803 862.03611,370.59013 861.27428,370.2661 860.51245,369.94206 859.85945,369.402 859.75061,368.6459 859.64178,367.8898 858.98881,367.61976 858.49905,367.61976 858.00931,367.61976 857.57815,367.24173 857.30608,366.70166 857.03398,366.1616 856.76191,366.1076 856.21775,366.05356 855.67358,365.99956 854.80291,366.3236 854.53085,365.4595 854.25875,364.5954 853.87785,363.35323 853.33368,362.65116 852.78951,361.94906 852.29978,361.73303 852.24535,359.3069 852.19095,356.87656 852.13651,356.55253 851.37468,355.68843 850.61285,354.82433 849.30688,352.5602 848.76272,351.58806 848.22272,350.61593 847.67855,349.64383 847.67855,351.69606 847.67855,353.7442 847.67855,354.82433 848.98038,355.5804 850.28635,356.3365 850.61285,356.3365 850.06872,357.41663 849.52455,358.49676 850.06872,359.25286 850.28635,360.00896 850.50402,360.76506 850.93935,361.52116 850.28635,362.2731 849.63338,363.0292 848.98038,362.81316 849.08922,361.62916 849.19805,360.44103 848.76272,359.03683 848.22272,358.06473 847.67855,357.0926 847.24325,356.44453 846.59025,356.9846 845.93725,357.52466 845.39308,356.87656 845.82842,356.44453 846.26375,356.01246 846.15492,355.68843 845.82842,355.3644 845.50192,355.04033 845.39308,354.7163 845.93725,354.06823 846.48142,353.42013 846.48142,353.0961 846.15492,351.58806 845.82842,350.07586 843.43408,342.51906 842.34575,340.79086 841.25742,339.06263 841.36625,337.7665 842.78108,339.4947 844.19592,341.22293 845.39308,342.7351 845.50192,344.13513 845.61075,345.5393 845.93725,346.4034 846.37258,346.9435 846.80792,347.48356 847.13442,347.26753 847.35208,346.07936 847.56972,344.89123 848.44038,345.32326 846.91675,343.05913 845.39308,340.79086 842.56342,337.0104 841.47508,330.2097 840.38678,323.409 839.95145,318.87243 838.86312,317.04033 837.77898,315.2041 837.45248,314.77206 837.34365,313.04383 837.23482,311.31563 837.34365,309.5874 836.58182,308.2954 835.81998,306.99923 835.27582,306.7832 835.16698,308.72743 835.05815,310.66753 835.27582,314.98806 835.81998,315.74416 836.36415,316.50026 836.03765,318.44036 835.92882,319.5205 835.81998,320.60063 834.10795,321.6683 837.67015,323.84103 839.08495,324.70513 838.86312,325.8933 838.64962,326.6494 838.43195,327.40133 838.21428,327.29333 837.45248,326.10933 836.69065,324.92116 835.92882,323.94906 835.16698,323.30096 834.40515,322.6529 834.29632,322.22083 834.40515,320.70863 834.51398,319.19646 834.84048,318.11633 834.40515,317.5804 833.96982,317.04033 833.75215,317.4724 833.53448,318.33233 833.31682,319.19646 833.09915,321.57276 832.66382,322.22083 832.22848,322.86893 832.01082,322.43686 831.68432,321.0327 831.35785,319.6285 831.79315,317.4724 832.55498,314.98806 833.31682,312.50376 833.75215,309.91143 833.09915,306.6752 832.44615,303.4348 832.77265,302.46267 830.26952,299.76647 827.77055,297.06613 824.94088,294.4738 823.74372,291.12953 822.54655,287.78113 822.32892,284.86477 821.02292,283.35257 819.72108,281.84453 817.87095,279.9003 816.67378,279.36023 816.67378,276.7679 816.67378,275.57973 816.67378,274.39573 816.67378,273.2076 816.12962,272.4515 814.71478,272.66753 813.29995,272.88357 812.42932,274.0717 811.56282,275.68777 810.69215,277.30797 810.03918,276.55187 808.84202,279.36023 807.64485,282.16857 805.90352,283.5686 805.90352,286.59297Z"/>
<path d="M813.73528,318.22433C814.60595,318.7644 815.43895,319.12583 816.74495,318.47776 818.05095,317.82966 819.61225,315.9602 821.35358,317.79643 823.09072,319.6285 824.07022,322.6529 824.07022,325.0292 824.07022,327.40133 824.07022,331.8299 826.79105,334.3142 829.51185,336.79436 830.92252,339.3867 831.03135,342.6271 831.14018,345.86333 832.33732,350.83196 832.66382,352.12813 832.99032,353.42013 833.75215,354.93233 834.62282,355.79643 835.49348,356.66056 836.14648,359.14486 836.25532,361.73303 836.36415,364.32536 835.92882,366.1616 836.25532,367.45776 836.58182,368.75393 836.25532,369.83406 835.27582,369.18596 834.29632,368.5379 834.07865,368.21383 833.53448,367.1337 832.99032,366.05356 832.33732,366.2696 832.88148,367.8898 833.42565,369.51 835.05815,371.01803 836.47298,371.01803 837.88782,371.01803 838.32312,371.23406 839.19378,372.0982 840.06028,372.9623 840.16912,373.39433 841.69275,373.39433 843.21642,373.39433 843.43408,373.39433 844.84892,373.8264 846.26375,374.25846 846.26375,374.04243 847.02558,373.8264 847.78738,373.61036 848.54505,374.25846 849.08922,375.66263 849.63338,377.0668 850.93935,380.95113 850.93935,382.03126 850.93935,383.1114 850.93935,384.19156 851.70118,385.2717 852.46301,386.35183 852.24535,387.43196 851.37468,386.78386 850.50402,386.1358 850.50402,386.35183 849.85105,386.45983 849.19805,386.56783 848.76272,386.2438 847.89622,385.70373 847.02558,385.16366 847.56972,385.2717 846.69908,383.97553 845.82842,382.67936 845.28425,382.2473 845.28425,383.21943 845.28425,384.19156 845.17542,385.3797 844.52242,384.83963 843.86942,384.29956 843.54292,384.29956 842.99875,384.83963 842.45458,385.3797 842.23692,385.81176 841.58392,384.73163 840.93092,383.65146 840.16912,383.65146 839.51612,383.43546 838.86312,383.21943 838.86312,383.21943 838.54078,382.2473 838.21428,381.2752 837.23482,381.05916 836.36415,381.05916 835.49348,381.05916 835.05815,380.6271 834.94932,379.97903 834.84048,379.3351 834.29632,378.90303 833.86098,378.579 833.42565,378.25496 833.64332,377.49886 833.53448,376.74276 833.42565,375.98666 832.77265,376.3107 832.33732,376.0947 831.90198,375.87866 831.57552,375.98666 831.57552,374.90653 831.57552,373.8264 831.14018,373.50236 830.81368,372.74626 830.49135,371.99016 830.81368,371.23406 831.03135,370.37413 831.24902,369.51 831.14018,368.96993 830.49135,368.21383 829.83835,367.45776 830.38252,366.70166 828.64122,365.18946 826.89988,363.67726 826.02922,364.97343 825.48505,361.41313 824.94088,357.8487 823.85255,350.50793 822.87305,349.31976 821.89358,348.13163 821.24475,347.26753 820.26525,346.9435 819.28578,346.61943 818.63278,346.83546 818.52395,344.7832 818.41512,342.7351 817.76212,340.14276 816.45612,338.84663 815.15012,337.55046 814.60595,337.1184 813.95295,336.57833 813.29995,336.03826 813.08232,335.06613 813.95295,333.23406 814.82362,331.39783 814.49712,328.91353 814.38828,327.72536 814.27945,326.54136 813.95295,325.0292 814.17062,323.73303 814.38828,322.43686 814.27945,320.81666 813.95295,319.95256 813.62645,319.08843 813.19112,318.87243 813.73528,318.22433Z"/>
<path d="M839.95145,287.5277C838.47802,289.40963 836.90832,290.98413 834.87815,292.42157 832.84802,293.86313 830.23602,295.01387 831.68432,297.4608 833.13682,299.90773 834.29632,300.19853 834.58515,302.068 834.87815,303.93747 835.31348,305.52443 836.76182,305.9565 838.21428,306.3844 838.79195,306.09773 838.79195,309.1221 838.79195,312.1465 838.79195,313.29726 840.09795,314.448 841.40395,315.59876 841.25742,316.74953 841.83928,319.48726 842.41692,322.22083 842.41692,328.1242 844.15825,332.15393 845.89958,336.18366 849.81755,343.81523 849.38222,345.39806 848.94688,346.98086 848.36505,348.13163 850.10638,350.0011 851.84768,351.87473 853.00718,354.6083 853.15368,356.1911 853.29601,357.77806 853.58901,358.35136 855.32615,357.77806 857.06748,357.20063 857.93815,356.62316 858.51998,355.90446 859.09765,355.18576 860.25711,355.33116 861.85611,356.1911 863.45095,357.0552 865.91641,357.91933 867.36475,357.0552 868.81725,356.1911 869.54138,354.8991 870.84738,354.8991 872.87755,353.45753 873.60168,350.43316 874.03701,349.5732 874.47235,348.7091 874.18351,348.7091 873.31288,347.84496 872.44221,346.98086 872.87755,345.5393 872.73101,344.1019 872.58871,342.66033 872.00688,340.5042 870.26555,337.33443 868.52841,334.1688 867.51125,330.2803 866.35175,329.27496 865.19228,328.26543 864.61045,325.81853 864.46391,324.66776 864.32161,323.517 863.01561,322.5075 862.14495,321.64336 861.27428,320.78343 860.40361,319.48726 859.39065,314.448 858.37348,309.40876 857.64931,305.81107 857.64931,304.94697 857.64931,304.08287 857.50281,303.93747 856.63215,303.6508 855.76148,303.36417 855.32615,301.9226 855.61918,301.2039 855.90798,300.48517 855.32615,299.76647 855.03735,298.90237 854.74851,298.03827 855.03735,296.45543 855.61918,295.59133 856.19681,294.72723 856.05451,292.2803 855.47265,290.26543 854.89081,288.25057 854.31318,286.52237 851.99001,286.23153 849.67105,285.9449 849.23572,285.3716 848.36505,283.49797 847.49438,281.6285 846.62372,278.31747 846.33488,277.5946 846.04608,276.8759 845.61075,276.7305 843.86942,278.17207 842.12808,279.60947 841.55045,280.08723 841.55045,282.77927 841.55045,284.50747 841.83928,285.0808 842.41692,286.0903 842.99875,287.09567 843.14525,287.38647 843.58058,290.12003 844.01592,292.8536 846.48142,297.17417 843.28758,299.62107 840.09795,302.068 840.53328,302.64547 840.67978,304.36953 840.82212,306.09773 839.80912,307.2485 839.22728,304.80157 838.64962,302.35463 839.22728,300.91723 840.96862,299.76647 842.70992,298.61157 844.30475,297.17417 843.14525,295.59133 841.98158,294.00853 841.55045,290.26543 841.40395,288.53723 841.25742,286.809 840.96862,286.23153 839.95145,287.5277Z"/>
<path fill="#dabcb0" d="M814.11202,324.23156C814.03248,325.4031 814.29622,326.69093 814.38828,327.72536 814.49712,328.91353 814.82362,331.39783 813.95295,333.23406 813.08232,335.06613 813.29995,336.03826 813.95295,336.57833 813.99065,336.6074 814.02412,336.6365 814.05762,336.66556 815.83242,336.07566 816.06265,334.11063 815.58545,333.1593 815.07895,332.15393 815.22548,330.9284 815.80312,329.92303 816.38495,328.91353 816.38495,328.34023 815.87845,327.61736 815.36778,326.89866 815.36778,326.89866 815.94962,324.8838 816.46032,323.10986 815.17105,323.12233 814.11202,324.23156 ZM 832.66382,352.12813C832.33732,350.83196 831.14018,345.86333 831.03135,342.6271 830.92252,339.3867 829.51185,336.79436 826.79105,334.3142 824.66882,332.3741 824.20418,329.25833 824.10372,326.85296 822.50888,325.885 821.83498,326.32536 821.96892,328.1242 822.11125,330.0643 824.07022,331.00316 823.78138,333.80736 823.49258,336.61573 823.49258,335.89703 824.86972,337.2638 826.24688,338.6306 826.75338,339.92676 826.02922,340.5042 825.30505,341.0775 825.22972,342.08703 826.24688,342.4443 827.25985,342.80573 827.33522,343.88586 827.18872,344.89123 827.04218,345.90073 827.98822,346.11676 828.56585,346.83546 829.14768,347.55416 829.21885,349.2824 828.64122,350.2919 828.05935,351.29726 827.98822,352.88006 829.00118,352.02013 830.01835,351.156 830.45368,351.94533 831.24902,353.31213 831.93968,354.49196 832.51732,354.12223 833.26658,353.76496 833.00708,353.22073 832.79778,352.65573 832.66382,352.12813 ZM 846.80792,377.28283C846.15492,378.579 845.39308,378.14693 844.74008,377.49886 844.08708,376.85076 843.32525,376.85076 843.65175,375.66263 843.97825,374.47446 843.86942,374.25846 842.99875,373.61036 842.89828,373.5356 842.79785,373.46913 842.69738,373.40266 842.42528,373.39433 842.10715,373.39433 841.69275,373.39433 840.16912,373.39433 840.06028,372.9623 839.19378,372.0982 838.99705,371.90706 838.82545,371.74923 838.65802,371.61626 838.64125,371.824 838.64962,372.0982 838.64962,372.42223 838.64962,373.61036 838.64962,373.39433 837.45248,373.7184 836.25532,374.04243 836.47298,372.53023 836.25532,371.5581 836.19672,371.30886 836.12975,371.12606 836.06695,370.9765 834.75675,370.72723 833.37542,369.3563 832.88148,367.8898 832.33732,366.2696 832.99032,366.05356 833.53448,367.1337 834.07865,368.21383 834.29632,368.5379 835.27582,369.18596 836.25532,369.83406 836.58182,368.75393 836.25532,367.45776 836.15065,367.04233 836.12555,366.5604 836.13812,366.0245 835.90368,365.6049 835.58558,365.26423 835.16698,365.08146 833.42565,364.32536 833.96982,364.10933 834.07865,362.70516 834.18748,361.30513 833.86098,361.30513 832.77265,362.05706 831.68432,362.81316 831.57552,361.94906 831.57552,359.79293 831.57552,357.63266 830.16068,357.63266 829.83835,359.14486 829.51185,360.65706 828.96768,359.68493 828.31472,357.52466 827.66172,355.3644 826.79105,354.82433 826.68222,356.87656 826.59012,358.6131 826.10455,359.02853 824.96602,358.06473 825.16692,359.31933 825.34272,360.49086 825.48505,361.41313 826.02922,364.97343 826.89988,363.67726 828.64122,365.18946 830.38252,366.70166 829.83835,367.45776 830.49135,368.21383 831.14018,368.96993 831.24902,369.51 831.03135,370.37413 830.81368,371.23406 830.49135,371.99016 830.81368,372.74626 831.14018,373.50236 831.57552,373.8264 831.57552,374.90653 831.57552,375.98666 831.90198,375.87866 832.33732,376.0947 832.60942,376.22763 832.96102,376.15283 833.21635,376.26086 833.49682,375.89526 833.75215,375.4466 834.07865,375.12256 835.38465,373.8264 837.34365,375.23056 837.99665,376.85076 838.64962,378.471 839.40728,378.90303 840.38678,377.60686 841.36625,376.3107 841.03975,376.52673 842.12808,377.7149 843.21642,378.90303 843.65175,378.687 843.65175,378.687 843.65175,378.687 844.74008,378.25496 845.50192,378.90303 846.26375,379.55113 846.69908,379.4431 848.10972,377.39083 849.52455,375.3386 847.46088,375.98666 846.80792,377.28283Z"/>
<path fill="#dabcb0" d="M824.17905,292.1723C823.10328,292.25123 822.36658,293.18597 822.98188,296.45543 823.36698,298.47863 821.82242,298.03827 821.24475,297.02873 820.66292,296.0234 820.22758,293.86313 819.06812,291.9895 817.90442,290.12003 818.48625,293.28567 818.34395,295.01387 818.19745,296.7421 819.35692,296.7421 820.37408,298.1795 821.38708,299.62107 820.51642,300.19853 819.35692,300.19853 818.19745,300.19853 818.77928,302.50007 819.06812,304.08287 819.35692,305.66567 818.77928,305.9565 817.90442,304.66033 817.03795,303.36417 817.61562,301.3493 817.76212,298.90237 817.90442,296.45543 818.05095,297.02873 816.45612,296.45543 814.86128,295.878 815.15012,295.59133 815.73195,294.14977 816.30962,292.71237 816.89145,291.9895 816.16728,291.2708 815.43895,290.5521 815.58545,290.12003 816.74495,289.97463 817.90442,289.83337 817.47328,288.96927 818.48625,288.67847 819.50345,288.3918 819.93875,288.82387 820.08108,286.9544 820.20248,285.39237 820.72988,284.4327 821.91032,284.9063 822.62192,287.31167 823.54698,291.05477 824.17905,292.1723Z"/>
<path fill="#dabcb0" d="M850.68821,318.0457C851.11935,314.88006 850.83051,311.71443 852.13651,310.55953 853.44251,309.40876 855.03735,307.10723 854.89081,312.0011 854.74851,316.89493 854.60201,316.6083 853.58901,317.75903 852.57185,318.9098 851.70118,319.19646 852.71835,321.07006 853.73135,322.93953 853.87785,323.08493 853.73135,325.96393 853.58901,328.8429 853.58901,329.99366 854.74851,331.43523 855.90798,332.87263 856.19681,333.01803 856.48985,334.60086 856.77865,336.18366 857.79165,338.34393 859.09765,339.4947 860.40361,340.64546 861.85611,343.9565 861.99845,346.26216 862.14495,348.5637 864.17511,349.14113 866.05875,350.72396 867.94658,352.30676 865.62761,353.45753 864.17511,352.73883 862.72678,352.02013 863.30445,352.73883 862.43378,353.7442 861.56311,354.7537 861.27428,354.8991 860.55015,353.17086 859.82598,351.44266 857.35631,350.2919 856.19681,349.85986 855.03735,349.4278 854.02435,347.55416 853.00718,345.6847 852.13651,344.07696 850.41195,342.90126 848.83805,342.7808 849.27338,343.99386 849.50778,344.94523 849.38222,345.39806 848.94688,346.98086 848.36505,348.13163 850.10638,350.0011 851.84768,351.87473 853.00718,354.6083 853.15368,356.1911 853.29601,357.77806 853.58901,358.35136 855.32615,357.77806 857.06748,357.20063 857.93815,356.62316 858.51998,355.90446 859.09765,355.18576 860.25711,355.33116 861.85611,356.1911 863.45095,357.0552 865.91641,357.91933 867.36475,357.0552 868.81725,356.1911 869.54138,354.8991 870.84738,354.8991 872.87755,353.45753 873.60168,350.43316 874.03701,349.5732 874.47235,348.7091 874.18351,348.7091 873.31288,347.84496 872.44221,346.98086 872.87755,345.5393 872.73101,344.1019 872.58871,342.66033 872.00688,340.5042 870.26555,337.33443 868.52841,334.1688 867.51125,330.2803 866.35175,329.27496 865.19228,328.26543 864.61045,325.81853 864.46391,324.66776 864.32161,323.517 863.01561,322.5075 862.14495,321.64336 861.27428,320.78343 860.40361,319.48726 859.39065,314.448 858.59531,310.50966 857.98001,307.4562 857.74978,305.89417 856.70748,307.54347 855.99591,307.94643 855.61918,306.81643 855.18385,305.52443 854.60201,304.80157 854.02435,305.66567 853.44251,306.5298 853.29601,304.94697 853.29601,304.22827 853.29601,303.5054 853.15368,303.36417 852.42535,303.36417 851.70118,303.36417 852.28301,302.2134 851.99001,300.05313 851.70118,297.89287 851.26585,297.6062 850.97705,300.19853 850.68821,302.7867 849.23572,304.36953 849.81755,304.94697 850.39518,305.52443 850.10638,306.6752 849.52455,308.4034 848.94688,310.12746 849.23572,311.13696 849.67105,312.28773 850.10638,313.4385 849.38222,315.59876 849.08922,317.4724 848.80038,319.34186 850.25288,321.21133 850.68821,318.0457 ZM 838.79195,309.1221C838.79195,312.1465 838.79195,313.29726 840.09795,314.448 841.40395,315.59876 841.25742,316.74953 841.83928,319.48726 842.41692,322.22083 842.41692,328.1242 844.15825,332.15393 844.67728,333.35453 845.39308,334.8792 846.12562,336.46616 847.08835,335.71423 847.92552,334.42223 848.22272,333.73673 848.65388,332.72723 847.35208,330.71236 846.33488,328.9883 845.32192,327.2601 846.48142,326.68263 847.49438,324.52236 848.51155,322.36623 847.35208,322.22083 845.75725,321.64336 844.15825,321.07006 844.15825,319.6285 843.28758,317.327 842.41692,315.02546 842.56342,314.01596 843.14525,312.7198 843.72292,311.42363 843.28758,310.41826 842.12808,310.12746 840.96862,309.84083 841.25742,308.9767 841.69275,307.5393 842.12808,306.09773 842.41692,305.81107 840.67978,306.24313 839.36122,306.56717 839.04312,306.8123 838.64962,307.2859 838.74592,307.70133 838.79195,308.27877 838.79195,309.1221Z"/>
<path d="M855.47265,315.16673C855.31361,316.89493 855.32615,317.75903 854.89081,318.33233 854.45968,318.9098 854.74851,319.7739 855.18385,320.63803 855.61918,321.50213 855.90798,322.6529 855.47265,324.2357 855.03735,325.81853 855.76148,327.1147 856.63215,327.54673 857.50281,327.9788 857.93815,327.54673 857.64931,329.5616 857.35631,331.57646 858.51998,333.73673 859.53295,334.60086 860.55015,335.46496 861.27428,336.90236 861.12778,337.7665 860.98545,338.6306 861.85611,339.4947 862.86911,339.92676 863.88628,340.3588 863.73978,340.5042 863.73978,341.0775 863.73978,341.65496 864.17511,341.65496 865.33458,341.94163 866.49408,342.22826 867.36475,342.95113 868.67075,344.53396 869.97671,346.11676 871.86038,346.98086 871.57155,345.25266 871.28271,343.52443 871.57155,342.37366 869.83021,341.50956 868.09308,340.64546 866.78708,336.47033 866.05875,333.59133 865.33458,330.71236 863.01561,326.82803 861.70961,326.10933 861.56311,324.0903 861.85611,323.08493 860.55015,322.07543 859.24415,321.07006 858.80881,319.7739 858.80881,318.7644 858.80881,317.75903 858.08465,316.46286 857.50281,316.17623 856.92515,315.88543 856.63215,315.16673 856.63215,314.3026 856.63215,313.4385 855.61918,313.5839 855.47265,315.16673Z"/>
</g>
<g id="ship" stroke="#000" stroke-width="0.5213">
<g fill="#f2d049">
<path d="M889.33641,354.31333C889.26525,346.14583 888.46991,277.78157 888.46991,261.97833 888.46991,258.19787 886.51095,258.95397 886.51095,261.97833 886.51095,264.8407 886.51095,345.3565 886.51095,353.88126 887.41091,354.0433 888.62481,354.20533 889.33641,354.31333Z"/>
<path d="M919.60448,257.00973 923.00341,354.47536 922.40901,355.25636 920.43745,355.28546 918.29011,257.00973Z"/>
<path d="M948.24841,339.30776C947.97214,329.38296 946.71638,283.4398 946.23081,260.7902 946.16804,257.76997 944.35554,258.29757 944.38484,260.8982 944.58158,279.14003 945.67411,330.15983 945.87501,339.36176 946.58661,339.36176 947.81308,339.29113 948.24841,339.30776Z"/>
<path d="M902.93631,273.2076 873.99935,272.77553C872.37105,278.60413 879.65865,278.4961 882.37948,276.98393 885.53145,279.36023 887.92575,279.1442 889.66708,277.19993 892.17025,279.2522 895.32221,278.71213 896.62818,277.41597 900.11085,280.0083 903.69815,277.41597 902.93631,273.2076Z"/>
<path d="M905.11298,287.6731 875.52301,287.5651C870.41205,292.42157 877.04668,294.79787 882.70598,291.44943 883.46781,293.06963 886.94628,294.04177 889.66708,292.7456 892.17025,294.68983 895.32221,293.28567 896.95468,291.66547 900.00201,293.06963 903.58931,293.5017 905.11298,287.6731Z"/>
<path d="M904.24231,306.0271 875.74068,305.81107C875.19651,310.88356 880.96465,310.2355 883.24595,308.94346 885.42261,312.28773 890.21125,311.53163 892.06141,309.5874 894.77805,311.42363 897.28118,310.99156 898.69601,309.26336 901.85218,311.9637 904.45998,308.51143 904.24231,306.0271Z"/>
<path d="M905.65715,324.3811 873.78588,323.84103C872.04455,329.23756 876.93785,330.2097 879.22331,328.91353 879.98515,332.04593 884.22545,330.96576 885.31378,328.6975 886.94628,330.3177 889.01408,329.4536 889.99358,328.37346 890.42891,331.28983 894.12505,331.39783 896.95468,328.91353 902.71865,332.91003 908.16028,328.26543 905.65715,324.3811Z"/>
<path d="M933.94108,316.8243 907.39845,316.6083C908.59561,322.0048 911.20341,323.409 915.44788,320.2766 918.60405,323.517 923.82385,322.32886 925.12981,320.70863 930.89378,325.35323 934.04991,319.95256 933.94108,316.8243Z"/>
<path d="M931.22028,298.79437 905.54831,298.03827C905.98361,304.51493 912.18291,304.2989 915.33905,301.49053 917.73338,304.51493 921.97368,303.6508 923.49735,301.49053 926.76231,304.73093 932.09095,302.7867 931.22028,298.79437Z"/>
<path d="M934.59408,278.4961H906.96311C907.28961,283.02853 913.38008,285.62087 918.05988,281.30447 919.36168,286.48497 924.36798,284.86477 926.54465,282.8125 929.69661,286.809 936.98421,282.2766 934.59408,278.4961Z"/>
<path d="M932.96161,264.67867 908.26911,265.00273C907.83378,268.99507 913.70658,270.7233 915.88321,267.48287 917.08038,269.53513 921.21185,269.3191 922.40901,267.37487 924.36798,270.39923 926.76231,268.347 927.51995,267.37487 930.34961,269.42713 933.39695,268.455 932.96161,264.67867Z"/>
<path d="M961.89854,273.63967 931.65561,273.3156C931.54678,276.44387 934.81174,277.74 936.76654,276.44387 936.76654,279.46823 941.01104,280.44037 943.73184,278.06407 945.58201,280.65637 951.01948,281.41247 953.19611,277.84803 957.65408,281.5205 962.44271,278.92817 961.89854,273.63967Z"/>
<path d="M961.46321,298.2543 931.87328,298.14627C932.09095,302.24663 936.87538,303.6508 939.59621,301.49053 940.24921,304.94697 943.94951,305.163 946.12198,303.4348 948.73398,306.35117 953.08728,306.56717 955.47741,303.32677 959.06891,304.62293 961.78971,301.59857 961.46321,298.2543Z"/>
<path d="M959.93958,320.3846 936.54888,320.06056C936.54888,324.16506 941.44638,324.70513 943.62301,322.54486 945.90431,325.24523 949.38698,325.24523 951.34598,323.08493 954.49794,325.7853 959.28658,325.0292 959.93958,320.3846Z"/>
</g>
<g fill="#000">
<path d="M905.82038,324.1277C906.20128,324.13183 906.25151,324.4559 905.81618,324.45173L873.67705,324.05706C873.24171,324.0529 873.30031,323.72886 873.68121,323.73303Z"/>
<path d="M931.07795,298.6074C931.45888,298.61987 931.50491,298.9439 931.06958,298.93143L905.60691,298.23767C905.17158,298.2252 905.23435,297.90117 905.61528,297.91363Z"/>
<path d="M904.21718,305.8817C904.59811,305.88587 904.64835,306.2099 904.21301,306.20573L875.71555,305.99803C875.28021,305.99803 875.33885,305.674 875.71555,305.674Z"/>
<path d="M905.05855,287.5277C905.43948,287.5277 905.49388,287.85173 905.05855,287.85173L875.25091,287.69803C874.81558,287.69803 874.87421,287.374 875.25511,287.37817Z"/>
<path d="M902.99491,273.04557C903.37581,273.04973 903.42188,273.37793 902.99071,273.36963L874.02865,272.93757C873.59331,272.92927 873.65191,272.60523 874.03285,272.61353Z"/>
<path d="M932.98671,264.55407C933.36761,264.5499 933.42625,264.87393 932.99091,264.8781L908.13518,265.1149C907.69985,265.11903 907.75008,264.795 908.13098,264.79083Z"/>
<path d="M934.51038,278.35903C934.89128,278.35903 934.94571,278.68307 934.51038,278.68307H907.04265C906.60731,278.68307 906.66175,278.35903 907.04265,278.35903Z"/>
<path d="M961.48414,298.01333C961.86508,298.01333 961.91948,298.33737 961.48414,298.33737H931.88165C931.44631,298.33737 931.50071,298.01333 931.88165,298.01333Z"/>
<path d="M961.89854,273.44857C962.27948,273.4527 962.32971,273.77673 961.89438,273.7726L931.65141,273.47763C931.21608,273.47347 931.27468,273.14943 931.65561,273.1536Z"/>
<path d="M933.94108,316.6249C934.32201,316.62906 934.37224,316.9531 933.93691,316.94893L907.33148,316.77446C906.89615,316.7703 906.95475,316.44626 907.33568,316.45043Z"/>
<path d="M959.93958,320.20596C960.32048,320.21013 960.37071,320.53416 959.93538,320.53L936.54888,320.2226C936.11358,320.21843 936.17634,319.8944 936.55728,319.89853Z"/>
</g>
<g fill="#7e7b80" stroke="none">
<path stroke="#000" d="M922.40901,355.25636C909.79278,355.4724 896.95468,355.4724 888.25225,354.17623 879.54981,352.88006 876.80808,351.667 870.84738,348.13163 861.92728,342.84313 859.75061,341.54696 847.13442,334.2062 845.20052,333.08036 843.10342,334.47623 845.82842,336.2543 858.55348,344.5672 863.37561,347.64973 869.43255,351.58806 875.74068,355.68843 879.80935,359.3318 883.68128,363.67726 888.68758,369.294 892.38371,369.402 894.66921,368.5379 896.95468,367.67376 900.54618,366.48563 904.13348,367.34973 907.72495,368.21383 912.50941,368.32186 915.01255,367.8898 917.29805,369.94206 922.51785,369.51 925.45631,368.86193 928.39061,368.21383 930.56728,367.8898 932.63511,368.32186 934.70291,368.75393 937.85488,368.42986 939.92271,368.10583 941.99054,367.7818 947.42798,367.24173 951.23714,367.7818 955.04208,368.32186 958.96008,367.99783 961.46321,367.24173 963.96221,366.48563 968.53318,366.70166 970.05684,367.1337 972.22931,365.5135 973.31764,363.46126 973.86178,361.30513 976.41938,360.9811 977.26911,360.66536 977.83418,359.19886 978.86811,356.49853 979.84341,353.8522 980.17408,352.6682H981.20381L981.53031,350.2379 979.41228,347.8076 980.17408,343.16716 982.45541,342.6271C982.56424,341.22293 981.91124,339.06263 981.47591,338.19853 967.77134,338.7386 954.33468,339.17066 944.71134,339.3867 943.62301,340.2508 942.42588,342.51906 942.20821,343.92326 936.33541,344.89123 932.85278,345.32326 931.32911,345.64733 929.80545,345.97136 928.95571,346.09183 927.74181,347.69956 925.78281,350.2919 923.93268,353.31213 922.40901,355.25636Z"/>
<path fill="#5c5568" d="M885.20495,362.9212C888.57875,360.76506 894.34271,361.19713 897.28118,363.35323 900.76385,361.41313 907.07195,361.94906 910.01045,364.5414 914.46841,361.52116 918.27755,361.0891 922.62668,364.00133 926.00048,361.62916 931.22028,361.41313 935.24708,364.21733 939.16088,362.3811 943.51418,360.87306 947.31914,364.86543 945.03784,363.24523 940.14038,361.84103 935.24708,365.62153 931.43795,361.84103 924.80331,363.24523 922.62668,365.83756 919.79701,362.48913 913.81541,361.94906 910.22391,366.05356 906.31011,362.81316 900.43735,362.70516 897.28118,365.18946 894.77805,363.24523 891.08191,361.62916 885.20495,362.9212Z"/>
<path fill="#5c5568" d="M944.65694,358.28076C927.36091,361.24696 889.66708,359.14486 881.39998,357.0926 878.55778,356.38636 879.33215,355.3644 881.72648,355.90446 891.25355,358.05226 911.58435,358.06473 922.78991,357.52466 924.96658,354.6623 928.39061,349.80583 929.42455,348.45566 930.45845,347.1055 930.91471,346.98086 933.07045,346.61943 936.92981,345.97136 939.13578,345.6224 942.48028,345.05323 942.53471,345.4853 942.53471,346.02536 942.53471,346.3494 942.26261,346.56543 941.99054,346.9435 941.77288,347.0515 941.77288,349.26576 942.20821,354.6623 942.64354,356.60653 943.07884,356.55253 943.62301,356.39053 943.89511,356.3365 944.65694,356.12046 945.41458,358.06473 944.65694,358.28076Z"/>
<path fill="#5c5568" d="M972.99114,359.10333C973.61481,359.0867 974.91664,359.05763 975.27661,359.0493 975.98404,359.0327 976.97608,358.5508 977.41141,357.47066 977.84674,356.39053 979.19461,352.39816 979.68434,350.72396L977.94301,348.11916C978.32394,345.97136 978.81368,343.05913 978.86811,342.46506 979.73878,342.14103 980.65964,341.817 981.09498,341.65496 981.20381,341.1689 980.99034,339.84783 980.55081,339.41576 973.09998,339.69826 950.80181,340.46683 946.72058,340.52083 945.74108,340.52083 945.30154,340.4793 944.92901,341.871 942.86118,349.5358 945.72014,360.29146 953.52261,366.48563 954.06678,366.9177 954.75328,366.55626 953.84494,365.72953 952.54311,364.5414 950.52971,362.11106 949.16931,359.70986 950.69298,359.68493 953.78214,359.63506 954.70721,359.5977 955.15091,361.41313 956.54064,365.24346 956.81271,365.89156 957.08481,366.53963 957.75454,366.63103 957.43641,365.66306 956.68714,363.39476 956.29368,360.81076 955.96718,359.5686 957.38201,359.53536 960.04841,359.5603 961.68088,359.4689 961.76041,361.52116 961.97808,364.27136 962.03251,365.02743 962.08691,365.78353 962.73991,365.83756 962.75248,364.97343 962.76921,364.10933 962.78598,360.45763 962.77341,359.38166 964.61518,359.3318 966.96764,359.25286 967.83831,359.25286 967.71691,360.42026 967.49088,364.19656 967.40718,364.7948 967.28161,365.67553 967.74621,366.09096 967.96388,364.8488 968.18154,363.60666 968.61688,360.70276 968.73828,359.2321 969.47498,359.21133 971.41304,359.1324 972.22931,359.11163 972.14978,360.2624 971.06144,363.76036 970.73494,364.67846 970.40844,365.5966 970.93588,365.62566 971.30421,364.7574 971.68931,363.86836 972.88231,360.35793 972.99114,359.10333Z"/>
<path d="M945.98804,342.0455C945.68664,343.59923 945.63224,346.91856 945.71598,348.3352 947.62054,348.3726 952.30871,348.26043 952.95751,348.2064 952.79848,346.59453 952.54311,343.67816 952.37988,341.85853 950.82691,341.925 947.02194,342.0164 945.98804,342.0455 ZM 953.76541,341.83776C953.81981,343.34996 954.15888,347.04733 954.26771,348.17733 955.91274,348.13163 959.93958,348.04853 961.29998,348.00283 961.22881,346.61943 961.00698,342.1618 960.98184,341.62173 958.79681,341.6799 955.15091,341.817 953.76541,341.83776 ZM 962.40504,341.5802C962.47201,342.98436 962.65201,346.94763 962.59761,347.97376 964.34311,347.92806 967.67924,347.89483 968.71318,347.81173 968.79271,346.4034 969.02291,342.37783 968.91408,341.3517 966.95511,341.42646 963.83244,341.53033 962.40504,341.5802 ZM 970.11124,341.31016C970.11124,342.4983 969.96054,346.67343 969.90614,347.8076 971.63491,347.74113 975.56124,347.60403 976.58261,347.5791 976.85468,346.1874 977.39884,342.5731 977.56211,341.04843 975.92961,341.10243 971.30421,341.27693 970.11124,341.31016Z"/>
<path d="M948.29864,358.22673C947.70008,357.0386 945.84991,352.8136 945.68664,349.73936 947.26474,349.7103 951.21201,349.6355 953.11658,349.59396 953.39704,351.9121 954.11701,356.90566 954.49794,358.08966 952.27104,358.14366 949.55021,358.2143 948.29864,358.22673 ZM 954.42258,349.56903C954.62768,351.3388 955.56114,357.41663 955.71184,358.11873 957.32758,358.0232 961.06974,358.01073 961.71858,357.9567 961.65158,356.3365 961.38788,350.25866 961.35858,349.39456 959.66748,349.44026 955.27231,349.54826 954.42258,349.56903 ZM 962.63528,349.36546C962.63528,350.3376 962.80688,357.29616 962.84874,357.89023 964.12544,357.8487 967.44064,357.803 967.93041,357.749 968.17738,355.04033 968.54991,349.85153 968.61688,349.20346 966.35651,349.26576 964.13801,349.33223 962.63528,349.36546 ZM 976.85468,348.96666C974.62361,349.0373 971.03631,349.13283 969.82241,349.17853 969.63404,351.9121 969.29081,356.63563 969.12758,357.71576 971.09074,357.67423 975.05894,357.5496 975.92961,357.52466 976.58261,356.2285 977.99744,352.18213 978.32394,350.94 977.83418,350.1839 977.45328,349.75183 976.85468,348.96666Z"/>
<path d="M933.78205,347.69956 930.94818,348.1981C929.64221,350.2919 924.80331,356.76856 924.20475,357.52466 927.57438,357.4291 932.84438,357.3294 934.11271,357.20893 934.02061,355.4724 933.78621,348.55953 933.78205,347.69956 ZM 935.03361,347.46693C935.10058,349.6812 935.31404,355.5804 935.36848,357.1466 937.03864,357.05106 940.11524,356.85166 941.36684,356.74363 941.07801,353.9602 940.55058,347.31323 940.44174,346.50313 939.03948,346.75653 936.28518,347.23843 935.03361,347.46693Z"/>
</g>
<path fill="#5c5568" d="M966.45278,338.76353C967.11834,336.47446 968.89734,330.3094 972.12048,318.6564 972.66044,316.71213 970.76004,315.9436 970.05684,318.44036 966.22258,332.04593 964.77424,337.14746 964.28868,338.84663 965.02541,338.83416 966.08024,338.75523 966.45278,338.76353Z"/>
<path fill="#ffffff" d="M987.67938,315.9602C983.05398,318.33233 980.82291,319.25046 978.70484,318.44036 976.75424,317.69673 973.88691,317.27713 972.20838,318.09553 972.20418,318.27003 972.17908,318.45696 972.12048,318.6564 970.13638,325.831 968.70061,330.9201 967.73368,334.31003 971.15771,335.51066 977.05561,335.67266 978.43278,334.2062 979.84341,332.694 983.70698,333.01803 985.66598,333.12606 986.91754,331.50586 987.40728,329.5076 987.08078,328.53546 986.75428,327.56336 986.86311,325.8393 987.35288,324.48913 987.84261,323.13896 988.49561,318.7644 987.67938,315.9602Z"/>
<path fill="#ef072d" d="M981.04058,324.65113C981.69774,323.20126 981.78984,319.86946 981.41311,318.60653 980.40014,318.8101 979.54201,318.7644 978.70484,318.44036 978.26534,318.2742 977.78394,318.12463 977.27748,318 977.18538,319.67006 976.57424,323.92413 975.82078,325.56926 974.50641,325.939 971.85674,325.50693 970.34984,325.0375 969.95218,326.45413 969.58801,327.75446 969.25314,328.9509 971.12424,329.3788 973.47251,329.34143 975.33104,328.91353 975.18454,331.4103 974.85384,333.68273 973.49344,335.2531 975.71614,335.30293 977.70441,334.9789 978.43278,334.2062 978.49974,334.1314 978.57508,334.0691 978.65461,334.00676 979.68014,332.3035 979.70944,330.08506 979.95641,328.5895 980.71408,328.6435 981.69358,328.42746 982.12891,327.9954 982.56424,327.56336 983.27164,327.34733 983.97904,327.40133 984.62368,327.4512 985.62828,327.31823 986.90498,326.80726 986.93848,326.04286 987.08914,325.21196 987.35288,324.48913 987.49518,324.09446 987.65008,323.43806 987.77984,322.64456 986.15991,323.41313 982.54748,324.69683 981.04058,324.65113Z"/>
<g fill="none">
<path d="m882.37948,276.98393c-5.11513,14.68154 -22.84653,47.6132 -33.5456,58.2193"/>
<path d="m857.04655,339.99323c12.14323,-9.3224 42.84663,-39.58283 48.06643,-52.32013"/>
<path d="m875.74068,305.81107c-1.41063,11.12126 -4.64633,30.95836 -6.38767,41.43153"/>
<path d="m880.50001,330.6002c-4.13146,3.9965 -9.9917,10.9717 -14.345,14.75216"/>
<path d="m921.41695,308.94346c3.05986,3.23627 7.409,6.8921 11.0005,7.86424 m-13.00134,-8.4043c-3.47846,3.34426 -7.45086,7.24523 -10.92933,8.21733"/>
<path d="m920.81838,291.66547c2.7208,2.26826 5.61743,5.57516 9.0959,7.08733 m-10.8791,-7.73127c-3.15197,2.69617 -7.83177,5.87014 -12.07207,7.05827"/>
<path d="m920.11095,271.6954c2.95106,3.34427 8.60616,6.0446 11.43583,6.8007 m-23.93067,0c3.36964,-0.9721 8.3885,-3.56443 11.0005,-6.26063"/>
<path d="m919.65051,258.30587c2.9343,2.48433 8.0913,6.0737 11.46094,6.39773 m-22.84234,0.29913c3.47847,-0.7561 7.78994,-2.59233 10.0754,-5.83273"/>
<path d="m946.39408,267.80693c1.3604,2.16027 4.78863,5.46714 6.74763,5.73717 m-8.66477,-5.57517c-1.88783,1.94427 -6.51323,5.43807 -9.44753,5.38407"/>
<path d="m946.96754,290.8055c1.11344,1.9941 5.3579,6.5016 7.75224,7.4197 m-21.64933,-0.0789c3.80493,-1.29617 9.13776,-4.387 11.80416,-7.5734"/>
<path d="m947.53681,313.09783c1.79573,2.2143 6.1993,6.26063 8.9201,7.23277 m-18.8741,-0.25757c1.74133,-0.3739 6.47553,-2.70867 7.77737,-5.463"/>
<path d="m888.94711,317.36436c4.45797,3.12827 9.64007,6.26064 13.60827,6.96274 m-24.8557,-0.4196c5.3286,-1.6742 16.09887,-8.16334 21.43167,-14.3201"/>
<path d="m888.75455,298.95637c1.19716,1.67006 9.9959,7.00426 13.74643,7.05826 m-25.7808,-0.1911c2.93847,-1.24213 6.79787,-3.36086 9.79077,-6.4351"/>
<path d="m888.59131,281.84453c3.04734,2.1021 9.0708,5.8161 13.20227,5.8161 m-15.28263,-5.9241c-2.2855,1.83207 -7.77737,5.12647 -10.44377,5.82857"/>
<path d="m888.48248,265.48463c1.90457,3.02437 7.00297,7.11227 10.32237,7.65234 m-12.2939,-8.29627c-2.44877,2.7502 -6.5802,7.0001 -10.00844,7.97223"/>
<path d="m932.51371,283.65167c7.62667,13.95453 21.77073,31.01236 36.07387,39.97333"/>
<path d="m909.62951,268.18497c11.58234,16.51776 34.32,52.73969 55.95263,66.11263"/>
<path d="m969.56708,320.16856c-3.48264,4.80664 -9.73634,12.3094 -20.07127,19.1392"/>
<path d="m968.27364,324.73006c-7.2876,-11.54913 -11.0549,-26.15173 -16.5049,-45.38229"/>
<path d="m886.51095,353.88126v-24.42766 m0,1.5662h-4.69237 m4.69237,1.45816h-5.0733 m5.0733,1.83624h-5.50864 m5.50864,2.1021h-6.01094 m6.01094,2.1603h-6.56767 m6.56767,2.10626h-7.0825 m7.0825,2.4303h-7.69367 m7.69367,2.2101h-8.22527 m8.22527,2.1603h-8.76944 m8.76944,2.26827h-9.3136 m9.3136,2.21427h-8.04947 m7.52203,-22.72854l-2.5492,24.1078 m1.0716,-23.62173l-3.51196,23.0526 m2.34826,-22.26743l-4.34073,21.64426 m2.86313,-21.29946l-5.05653,20.48936"/>
<path d="m888.86338,330.81623h3.86357 m-3.63334,1.3377h4.1482 m-3.72543,1.57867h4.2696 m-3.90123,1.69913h4.51236 m-4.09376,1.8487h4.74676 m-4.34913,1.7822h5.03143 m-4.58353,1.99827h5.29097 m-4.88494,1.83623h5.5756 m0.7367,1.9567h-5.87696 m6.6932,2.26413h-6.17417 m6.93183,2.08134h-6.47136 m7.20806,2.0481h-6.70576 m0.54416,2.6588h7.1118 m-12.5911,-24.5357l5.6886,25.45796 m-4.94353,-25.86093l7.36713,26.01467 m-5.6593,-24.85977l7.93644,24.99683 m-6.27044,-24.42353l8.9745,24.50663"/>
<path d="m916.05905,322.44933h-3.01804 m2.6664,1.35017h-3.3487 m2.9678,1.49973h-3.71286 m3.33193,1.45817h-4.05193 m3.67103,1.45403h-4.40773 m3.98496,1.6493h-4.78446 m4.36166,1.61603h-5.21976 m4.7719,1.72824h-5.64257 m4.98957,2.52583h-6.2286 m5.6593,2.2143h-6.77274 m6.02347,2.89973h-7.48013 m6.7183,2.4843h-7.9406 m7.5053,2.15614h-8.59364 m7.7397,2.70033h-9.08336 m8.59363,2.48433h-9.8745 m9.05823,3.07424h-10.607 m19.07504,-32.6575l-8.8573,34.22366 m8.1164,-34.8136l-11.38977,34.82607 m10.36003,-34.48123l-14.35753,34.29013 m13.29433,-33.72517l-16.8649,33.5673"/>
<path d="m931.71838,323.07246h-4.3198 m5.88953,2.75437h-4.99796 m6.56766,2.75433h-5.6928 m7.2625,2.7502h-6.4002 m7.9699,2.75434h-7.06576 m8.63546,2.75436h-7.74806 m9.31776,2.7502h-8.45126 m10.02096,2.75434h-9.17543 m9.1838,0.0166l-11.56557,-20.30654 m-1.43993,0.43207l10.4856,21.7564 m-11.7623,-21.81043l8.9536,22.24666 m-10.36007,-22.7244l7.3797,23.18137"/>
<path d="m941.11151,324.028h4.29887 m-5.19884,2.67123h5.22397 m-6.12393,2.67543h5.56303 m-6.463,2.67127h5.90207 m-6.80204,2.67123h6.24114 m-7.1411,2.67127h6.5802 m-7.48017,2.67127h6.9067 m-7.80667,2.6754h7.24577 m3.8845,-18.46617l-4.13567,19.73327 m-2.0427,0.2991l4.91424,-20.7386 m-1.31857,-0.80594l-6.6974,22.0306 m4.5333,-21.0585l-7.22063,21.49057"/>
<path d="m954.43514,324.78406h-5.0984 m5.90627,2.1603h-5.37467 m6.17837,2.16027h-5.68443 m6.4923,2.1561h-5.9858 m6.7895,2.16027h-6.24117 m7.04903,2.1603h-6.51323 m7.3211,2.16026h-6.85647 m1.9883,-13.16936l5.34537,14.44473 m-7.53877,-15.30883l5.337,15.37946 m-6.9946,-15.30053l4.89327,15.3587 m-6.21183,-14.68153l3.54126,14.73553"/>
</g>
</g>
<g id="bird" stroke-width="0.5213">
<path fill="#000" d="M877.22248,183.99254C873.91145,184.0881 866.70338,184.15457 865.18808,184.9979 863.67698,185.8454 863.01141,186.21927 865.66108,186.68874 868.31075,187.15817 872.79381,188.40864 875.25091,189.9125 877.70805,191.41224 879.76748,194.07104 879.08938,197.86397 877.05921,209.2594 883.06178,220.21864 891.76001,224.35224 892.60138,224.75104 892.80231,225.05433 892.61395,226.6039 892.42558,228.15347 891.85631,230.7375 891.38328,231.39387 890.91028,232.05443 890.67588,233.13457 892.18698,232.61527 891.14888,234.5429 888.82991,238.394 888.12248,239.37857 881.16975,238.53523 875.49788,239.47413 874.97465,246.70273 874.92441,247.40897 875.16721,248.5348 876.25135,246.75257 877.33968,244.9662 878.57031,243.27537 881.54648,242.80593 879.79678,245.48133 879.23168,247.8784 879.51635,249.428 879.79678,250.97757 880.22375,251.91647 880.98138,249.94313 881.73905,247.97397 883.13295,246.12943 884.62311,245.0119 885.18821,244.5923 885.56911,244.49677 885.14215,245.71813 884.71518,246.93953 885.33051,249.56923 886.18445,250.46243 887.03418,251.35147 887.46111,250.97757 887.22255,249.52353 886.98811,248.06537 887.35648,245.0202 889.16058,244.073 891.76001,242.71453 893.98271,243.41663 895.02501,245.203 896.06311,246.98523 896.96308,245.2944 895.82868,243.27537 894.69431,241.25637 893.50971,239.84803 891.61771,239.70677 893.27531,236.79457 895.21338,233.27167 895.64031,232.56957 896.06311,231.86333 896.72865,231.53513 897.29375,231.95887 897.86301,232.38263 898.23975,232.33277 898.80905,231.16123 899.37415,229.98557 900.36618,226.5125 901.78518,225.10417 902.49678,224.91307 903.63118,224.63474 904.05395,224.25667 905.89991,226.9321 907.55335,229.89417 907.98028,230.55053 908.40308,231.20693 908.88025,231.48943 908.45328,232.85207 908.02635,234.2147 906.56128,238.53523 906.32688,239.47413 901.16988,239.66107 898.80905,239.75247 897.15145,242.619 896.42728,243.86947 897.57838,244.3555 898.80905,243.69913 900.03551,243.04273 901.78518,242.47773 902.68515,242.619 903.58095,242.76023 904.00371,243.2172 903.10795,243.65343 899.94341,245.203 897.96348,247.17217 898.09745,249.89743 898.14348,250.88203 898.55371,251.37223 899.32808,250.0387 900.41641,248.1609 902.40051,246.28313 904.81158,245.76383 904.66928,248.06537 905.19251,251.44703 906.60731,252.15327 908.02635,252.85533 908.12681,252.1408 907.59938,250.79063 906.74965,248.63037 907.63288,246.45763 908.68771,245.2944 910.91041,242.85163 915.97111,246.2333 916.91715,247.08077 917.86315,247.9241 918.72545,248.27723 918.19381,246.09203 917.48225,243.18397 913.32148,241.49317 909.77605,241.0237 910.76808,236.27943 913.41775,226.69943 914.83675,223.41334 916.91715,224.53917 918.54125,221.5688 922.02391,222.84834 927.88415,225.00863 936.67864,230.455 938.19394,231.67637 939.70504,232.89777 940.27431,232.61527 941.03198,231.95887 941.78541,231.3025 943.11234,231.95887 944.15044,232.14583 945.19271,232.33277 946.13874,232.61527 944.81181,229.98557 943.48908,227.35583 940.27431,222.7528 934.88291,219.1842 938.09768,219.4667 942.45098,219.4667 942.45098,218.62337 942.45098,217.77587 937.43631,216.1806 935.35591,215.99364 937.34421,215.5242 940.37061,214.3942 941.78541,212.79894 942.62678,211.8559 941.61798,211.6357 938.66694,211.57754 929.58778,211.3906 925.05028,211.46124 920.32025,208.7609 912.75638,204.44034 908.42818,199.8913 904.71531,197.95954 902.73121,196.9251 901.52148,194.54047 900.75548,192.4799 898.29835,185.90354 898.41975,182.94564 892.65161,180.78537 886.88348,178.6251 880.24885,181.27144 877.22248,183.99254Z"/>
<path fill="#fff" stroke="#000" d="m895.86638,184.57c-1.0967,-1.17983 -3.04733,-2.2683 -4.02263,-2.59233c-0.9795,-0.32403 -1.08834,0.6481 -0.54417,1.13413c-0.43533,0.6481 -0.5986,2.2143 0.16323,2.64634c0.76184,0.43206 0.7702,1.0469 0.0544,1.40003c-1.08834,0.54007 -0.71997,3.4066 0.9209,2.59233c0.54416,-0.27003 0.97946,-0.16203 0.87063,0.27004c-0.1088,0.43203 0.10883,0.97213 0.5986,1.08013c0.48973,0.108 0.43533,0.8101 0.3265,1.08013c-0.10883,0.27004 0.0544,0.37804 0.59857,0.43207c0.54416,0.054 0.5986,1.35017 -0.3809,1.7822c1.19716,0 1.52366,-0.216 1.85016,0.7561c0.32647,0.96797 1.63247,1.184 1.63247,2.37217c0,1.18813 -0.21767,1.40416 -1.63247,1.18813c-1.41483,-0.21603 -1.959,0.21603 -2.39433,0.7561c-0.43533,0.54007 -0.54417,1.08013 0.54417,1.13413c1.08833,0.054 1.306,0.54007 0.21766,1.02614c-1.08833,0.48606 -2.8799,0.16203 -3.15196,1.18813c-0.2721,1.022 0,1.50807 0.81206,1.13c0.81624,-0.3739 2.50314,-1.07597 3.15614,-1.45403c0.653,-0.37804 1.25156,-0.43204 1.79573,0.43206c0.54417,0.8641 0.10883,1.83207 -0.81623,1.08014c-0.92507,-0.7561 -1.3604,-0.0582 -1.90457,0.3739c-0.54417,0.43203 -1.3604,0.70206 -2.23107,0.70206c-0.8665,0 -1.46506,0.11217 -1.35623,2.05227c0.3265,5.83273 4.8933,10.14913 13.26923,10.0411c8.37594,-0.108 12.51157,-0.216 13.76317,-0.054c-2.77527,-1.5122 -4.51657,-2.3223 -5.49607,-2.21427c-0.9795,0.108 -1.79573,0.27004 -1.3604,-0.48606c0.43534,-0.7561 -0.0544,-0.7561 -0.48976,-1.08014c-0.43534,-0.32403 -0.9753,-0.7561 -1.84597,0.16204c-0.87067,0.9181 -2.9385,1.94423 -3.9724,2.16026c-1.0339,0.21604 -2.2855,0.162 -1.306,-0.8101c0.9795,-0.97213 3.15617,-1.29616 3.80917,-1.72823c0.653,-0.43207 0.653,-0.69793 0.653,-1.02197c0,-0.32403 -0.16327,-1.24216 1.0883,-0.54006c2.499,1.40416 6.41696,3.50626 7.45086,3.45226c1.03394,-0.054 1.74134,-0.48606 0.81627,-1.08013c-0.9251,-0.59407 -1.19717,-1.45403 -0.9251,-1.77807c0.2721,-0.32403 0.43533,-0.64806 2.06783,0.27004c1.6283,0.91396 4.2947,2.1021 5.2742,2.53416c0.9795,0.43207 2.2855,0.27004 0.2721,-1.18813c-2.01343,-1.45403 -8.26713,-5.55857 -10.00843,-6.85473c-1.74133,-1.29617 -0.9795,0.27003 -0.81627,0.7561c0.16327,0.48606 -1.19716,1.08013 -1.90456,0.48606c-0.7074,-0.59406 -1.19717,-1.24216 -0.21767,-1.78223c0.9795,-0.54007 1.19717,-0.59407 -0.27207,-1.89023c-1.46506,-1.292 -1.9004,-1.184 -1.5739,-0.108c0.3265,1.08013 0.43534,2.26826 -1.08833,1.6742c-1.52367,-0.59407 -2.2855,-1.29617 -1.306,-1.89024c0.9795,-0.58993 2.23107,-0.91396 0.5986,-2.26413c-1.6325,-1.35017 -1.14277,0 -1.52367,0.7561c-0.3809,0.7561 -1.6325,0.7561 -2.3399,0.162c-0.70743,-0.59407 -1.03393,-1.18813 -0.54416,-1.6742c0.48973,-0.48607 0.43533,-0.7561 1.14273,-0.37803c0.70743,0.37803 1.79573,0.162 0.48977,-0.97214c-1.306,-1.13413 -1.79577,-0.64806 -1.52367,0c0.27207,0.6481 -0.76183,1.78224 -2.39013,0.27004c-0.7744,-0.71454 -0.76184,-1.6742 0.0544,-1.83624c0.81206,-0.162 0.8916,-0.5816 0.32233,-1.40416c-3.31523,-4.80247 -1.9548,-8.69094 -5.2742,-12.25124z m-18.27553,0.9181c-1.46927,-0.054 -4.35334,-0.3988 -6.74347,-0.162c-0.54417,0.054 -1.19717,0.32404 0.10883,0.48607c1.306,0.162 4.83887,1.02197 6.09047,1.454c1.25157,0.43207 0.7074,1.08017 -0.38093,0.81013c-1.08834,-0.27003 -1.49017,0.12877 -0.59857,0.75607c4.6254,3.24043 5.11513,4.48257 3.91797,15.59967c0.87066,0.59406 1.57806,1.02613 2.3399,1.40416c0.76183,0.37807 0.54416,0.91814 -0.27207,0.7021c-0.81627,-0.21603 -1.57807,0.27004 -0.2721,0.54007c1.306,0.27003 1.9004,0.8641 0.653,0.8101c-1.25157,-0.054 -2.7208,1.02613 -0.27207,0.7561c2.44454,-0.27003 3.42404,0.8641 0.54417,0.9181c-2.88407,0.054 -1.79573,0.97213 -0.2721,0.97213c2.71663,0 1.9004,0.7561 1.19717,0.7561c-0.7074,0 -1.0339,0.9181 0.76183,0.7561c1.79157,-0.16203 2.49897,-0.21603 3.15197,-0.10803c0.653,0.10803 0.92506,0.64393 -0.0544,0.7021c-0.97946,0.0498 -0.92506,0.75193 0.54417,0.75193c1.46927,0 2.0804,0.44037 0.76183,0.7021c-0.54416,0.108 -1.2976,0.37804 0.2721,0.59407c2.7208,0.37803 2.82964,1.02613 1.95897,1.13413c-0.87063,0.10804 -0.97947,0.5941 0.2721,0.7021c1.2474,0.108 2.3357,0.48607 1.306,0.7561c-1.03393,0.27004 -1.5781,0.8641 -0.27627,0.9721c1.30597,0.10804 2.3943,0.5941 1.4148,0.91814c-0.97946,0.32403 -1.19713,0.9181 0.0544,0.8641c1.25156,-0.054 1.74133,0.6481 0.87066,1.13c-0.87066,0.48606 -1.46923,0.8101 -2.0134,-0.0499c-0.54,-0.8641 -0.8665,-1.13413 -1.02973,-0.48607c-0.16327,0.64394 -0.54417,0.21604 -0.9795,-0.75606c-0.43533,-0.97214 -1.19717,-1.24217 -0.9795,-0.48607c0.21767,0.7561 -0.76183,0.8641 -1.6869,0.48607c3.42823,3.45226 8.48477,6.58466 16.5342,3.34426c0.6865,-0.2742 0.81627,0 1.3604,1.13414c0.54417,1.13413 2.06783,3.61846 2.612,4.53656c0.54417,0.9181 0.9753,0.0914 1.2474,-0.8101c1.08833,-3.56446 1.90457,-6.2108 2.23107,-7.17876c0.3265,-0.9721 1.85016,-1.94424 1.3604,1.45403c1.19716,-0.8101 6.50066,-1.5745 10.60703,-0.054c4.51237,1.6742 9.04983,4.2707 11.36883,5.99476c0.43533,0.32404 0.9795,0.70207 2.06363,0.59407c1.08834,-0.108 1.3604,-0.27003 -0.70743,-2.16027c-2.06363,-1.89023 -1.19297,-2.80836 0.10883,-1.89023c1.306,0.9181 2.01344,0.37803 1.03394,-0.7561c-0.9795,-1.13413 -3.31524,-3.34426 -4.07707,-3.88433c-0.7618,-0.54007 -0.87063,-0.7561 -2.61196,-0.8641c-1.74134,-0.10803 -5.43747,-0.10803 -6.5258,-0.10803c-1.0883,0 -1.4148,0.10803 0.9795,0.97213c2.39013,0.85993 7.28763,3.99233 8.37593,4.74843c1.08833,0.7561 1.85016,2.4843 -0.54413,0.97213c-2.39434,-1.51219 -9.8996,-6.15263 -14.90174,-7.88083c-11.42326,0.7561 -20.4522,2.26827 -27.19563,-5.0725c-3.2315,-3.5146 -3.37383,-11.5533 2.06363,-14.9017c-1.08833,-0.91813 -0.92506,-1.4582 -0.48973,-1.67423c0.4353,-0.21603 0.59857,-0.43203 0.16323,-0.9721c-0.43113,-0.54007 -0.3809,-1.022 0,-1.238c-1.19296,-0.6481 -1.73713,-1.4042 -1.68273,-2.2143c-1.46923,-0.32403 -2.12223,-2.05227 -4.08123,-1.5122c-1.95897,0.5401 -2.93847,0.10803 -3.53287,-0.37803c-0.60277,-0.48607 -1.08833,-0.7021 -2.17667,-0.59407c-1.0883,0.108 -1.95896,-0.32403 -2.0134,-0.8641c-0.0544,-0.54007 0.9209,-0.8018 2.39434,-0.16203c3.09753,1.35016 5.6007,1.99823 7.50526,-0.54007c1.90457,-2.53417 -0.54416,-4.91047 -4.19006,-5.61257c-3.6417,-0.70206 -6.3081,1.94427 -7.6685,3.1864z"/>
<path fill="#fff" d="M894.45571,225.2911C895.25941,225.52377 898.05138,225.80627 898.99741,225.85197 898.52441,226.8407 898.09745,227.4971 897.81281,228.20333 897.52815,228.9054 897.39001,228.95527 897.33978,227.87513 897.29375,226.79083 896.67841,226.08877 896.11335,227.2146 895.54405,228.34457 895.25941,228.76417 894.97895,229.2336 894.69431,229.70307 894.26735,229.89417 894.40968,228.71847 894.55201,227.5428 894.50595,226.3214 894.45571,225.2911Z"/>
<path fill="#f2d049" d="m910.81831,207.6475c0.13397,0.1662 0.3014,0.34897 0.49394,0.511c0.7074,0.59407 2.06783,0 1.90456,-0.48606c-0.16323,-0.48607 -0.92506,-2.05227 0.81627,-0.7561c1.7413,1.29616 7.995,5.4007 10.00843,6.85473c2.0134,1.45817 0.7074,1.6202 -0.2721,1.18813c-0.9795,-0.43206 -3.6459,-1.6202 -5.2742,-2.53416c-1.6325,-0.9181 -1.79573,-0.59407 -2.06783,-0.27004c-0.2302,0.27004 -0.046,0.92227 0.55253,1.4748c-0.9711,0.14127 -2.5492,-0.0706 -3.00126,-1.09673c-0.54417,-1.24217 -1.85017,-2.75437 -2.77524,-3.9425c-0.34323,-0.44037 -0.4437,-0.71457 -0.3851,-0.94307z m-19.01223,-11.59896c-0.3642,-1.2214 -0.72417,-1.5122 -1.37717,-1.43744c-0.653,0.0706 -0.94183,-0.0748 -1.67016,-0.36143c-0.72417,-0.28663 -1.66597,0.0706 -1.81247,1.3668c-0.14653,1.29617 -0.94183,1.94423 -2.03017,2.73357c-1.08833,0.7935 -1.74133,1.44156 -1.74133,2.73773c0,1.29617 -0.2888,1.65343 -1.01297,2.59233c-0.32233,0.41544 -0.77856,0.88904 -1.20553,1.38757c0.4688,0.2908 0.90833,0.5442 1.36877,0.76853c0.76183,0.37807 0.54416,0.91814 -0.27207,0.7021c-0.81627,-0.21603 -1.57807,0.27004 -0.2721,0.54007c1.306,0.27003 1.9004,0.8641 0.653,0.8101c-1.25157,-0.054 -2.7208,1.02613 -0.27207,0.7561c2.44454,-0.27003 3.42404,0.8641 0.54417,0.9181c-2.88407,0.054 -1.79573,0.97213 -0.2721,0.97213c2.71663,0 1.9004,0.7561 1.19717,0.7561c-0.7074,0 -1.0339,0.9181 0.76183,0.7561c0.0251,-0.004 0.046,-0.008 0.0753,-0.008c0.25954,-0.26587 0.4521,-0.5982 0.5944,-1.0178c0.28884,-0.8641 0.57767,-3.3858 1.59484,-4.10453c1.01296,-0.7187 1.52366,-1.7282 1.52366,-2.4469c0,-0.71874 1.51947,-3.88434 2.53664,-4.67784c1.01716,-0.79346 1.4525,-2.51753 1.08833,-3.74306z m12.7083,27.16956c-5.94393,2.3929 -10.23027,1.3294 -13.4576,-0.7935c1.3353,-0.45283 2.83803,-0.0665 3.34033,-0.0166c0.54417,0.054 2.23107,0.43204 3.15617,0.9181c0.92507,0.48607 1.52367,-0.37803 1.14273,-1.35016c0.81627,1.02613 1.41484,1.7282 2.39014,1.6742c0.9795,-0.054 2.612,-0.21604 3.42823,-0.43204z m-6.18253,-18.38723c-0.3558,0.79763 -0.36417,0.7187 -1.52367,0.7893c-1.15947,0.0748 -2.62033,0.27003 -3.2608,0.9389c-0.3474,0.35727 -2.35247,0.45283 -2.35663,1.3294c-0.008,0.88073 0,1.6202 0.87066,1.6742c0.86647,0.054 0.9753,0.16203 0.653,0.8101c-0.3307,0.6481 -0.54416,1.72823 0.9753,1.83623c1.52367,0.10804 2.612,-0.37803 2.9929,0.4819c0.3809,0.86414 -0.0293,2.24337 0.27207,2.75437c0.3014,0.511 1.33113,0.83917 2.92593,1.3294c1.06324,0.3282 5.07747,0.51513 6.3123,0.3739c1.23067,-0.1454 0.7702,-0.8766 -0.46463,-0.9846c-1.23063,-0.108 -2.13897,-0.28663 -2.4278,-1.184c-0.28883,-0.9015 -0.54417,-1.37093 0.1465,-2.12287c0.6865,-0.7561 1.37717,-1.33356 0.9795,-2.59233c-0.40183,-1.25877 -1.05483,-2.73773 -2.50317,-3.1324c-1.45246,-0.39467 -0.99203,-2.36383 -2.43196,-2.55493c-0.54417,-0.0706 -1.013,-0.0706 -1.1595,0.25343z"/>
<path fill="#a89078" d="m884.11661,213.82507c-0.74926,0.0955 -1.23063,1.1549 -0.28883,1.37093c0.94183,0.21604 1.1595,0.28667 1.1595,1.00537c0,0.7187 0.293,1.7282 1.306,1.79883c1.01717,0.0748 1.88783,-1.08013 1.01717,-1.4374c-0.87067,-0.36143 -1.67017,-0.6481 -1.74134,-1.44156c-0.0712,-0.78934 -0.87066,-1.3668 -1.4525,-1.29617z m7.18297,2.70033c1.2474,0.108 2.3357,0.48607 1.306,0.7561c-1.03393,0.27004 -1.5781,0.8641 -0.27627,0.9721c1.30597,0.10804 2.3943,0.5941 1.4148,0.91814c-0.97946,0.32403 -1.19713,0.9181 0.0544,0.8641c1.25156,-0.054 1.74133,0.6481 0.87066,1.13c-0.87066,0.48606 -1.46923,0.8101 -2.0134,-0.0499c-0.54,-0.8641 -0.8665,-1.13413 -1.02973,-0.48607c-0.16327,0.64394 -0.54417,0.21604 -0.9795,-0.75606c-0.43533,-0.97214 -1.19717,-1.24217 -0.9795,-0.48607c0.21767,0.7561 -0.76183,0.8641 -1.6869,0.48607c0.91253,0.9181 1.93807,1.8113 3.1059,2.5674c1.3353,-0.45284 2.80873,-0.0831 3.31103,-0.0332c0.54417,0.054 2.23107,0.43204 3.15617,0.9181c0.92507,0.48607 1.52367,-0.37803 1.14273,-1.35016c-0.3809,-0.96797 -0.43533,-0.64394 -0.92506,-0.10804c-0.48977,0.5401 -0.5986,-0.216 -0.54417,-1.346c0.046,-0.9555 -0.5986,-0.7021 -0.81623,-0.108c-0.21767,0.59407 -0.70744,-0.37806 -0.43534,-0.97213c0.27207,-0.59407 -0.0544,-0.8101 -0.54416,-0.64807c-0.48977,0.162 -0.54417,0 -0.5986,-1.08016c-0.0544,-1.08014 -0.54417,-0.9181 -0.7074,-0.48604c-0.16327,0.43204 -0.5986,-0.16203 -1.25157,-1.02613c-0.5693,-0.7561 -1.22647,-0.3116 -2.36503,0.1371c0.14233,0.0831 0.40183,0.1537 0.79113,0.18693z m-1.599,-20.40626c-1.02973,-0.6813 -2.03017,-0.28664 -2.03017,1.00953c0,1.29613 -0.653,1.65343 -1.52366,2.08547c-0.86647,0.43206 -1.66597,1.5122 -1.81247,2.5217c-0.14233,1.00536 0.1465,1.65346 -0.57767,2.44693c-0.72833,0.78933 -0.7995,1.4374 -0.2888,1.86947c0.50647,0.43206 0.50647,0.50683 0.72414,1.15076c0.21766,0.64807 1.44833,-0.0706 1.44833,-0.78933c0,-0.7187 0.293,-0.7187 1.08833,-1.15077c0.7995,-0.43203 2.10547,-2.5217 1.81247,-3.095c-0.28883,-0.57746 -1.01297,-1.08013 -0.0712,-1.87363c0.94184,-0.7893 1.959,-0.8641 1.959,-1.65343c0,-0.79347 0.28884,-1.08014 0.57767,-1.36677c0.293,-0.29083 -0.653,-0.72287 -1.306,-1.15493z m8.0536,-2.58817c-0.7995,-0.8641 -0.293,-1.29617 0.57767,-1.7282c0.21346,-0.10387 0.36,-0.2368 0.46463,-0.39467c-0.24697,-0.95136 -0.4437,-1.86533 -0.70323,-2.75436c-0.45627,0.1288 -0.98787,1.1383 -1.13857,1.63683c-0.21767,0.7187 -0.43533,1.15077 -1.15947,0.93473c-0.64463,-0.1911 -1.28926,0.5276 -1.4232,1.29617c0.10047,0.0415 0.25534,0.0706 0.46044,0.0914c0.3014,0.0291 0.45206,0.4362 0.36,0.86827c1.96316,-0.0623 2.29803,1.2837 2.6329,2.20596c0.36416,1.0095 0.7995,0.8641 1.08833,0.2908c0.28883,-0.57746 -0.36417,-1.58283 -1.1595,-2.44693z m-6.23693,-6.3728c-1.08834,0.54007 -0.71997,3.4066 0.9209,2.59233c0.54416,-0.27003 0.97946,-0.16203 0.87063,0.27004c-0.0586,0.2285 -0.0209,0.4902 0.10047,0.69793c0.64883,-0.27003 1.29763,-0.7187 1.80413,-1.292c1.01717,-1.15077 0.0711,-1.08013 -1.44833,-1.08013c-1.52364,0 -1.95897,-0.28667 -0.51067,-1.15077c1.29763,-0.77273 0.45207,-1.30863 -1.34367,-1.05937c0.25954,0.36557 0.12977,0.7644 -0.39346,1.02197z m1.49853,-4.65703c-0.83717,0.80593 -0.98367,1.16736 -0.5567,1.16736c0.50647,0 0.2888,0.0706 -0.0754,0.64807c-0.35996,0.57747 0.72834,0.86413 1.16367,0.43207c0.43533,-0.43207 0.5065,-0.57747 0.72417,0c0.1758,0.46943 0.8916,0.0249 1.34366,-0.4279c-0.7409,-0.7104 -1.73713,-1.3668 -2.59943,-1.8196z m3.40313,2.71693c-0.28466,0.42377 -0.3893,0.40713 -0.91673,0.7561c-0.6488,0.4279 -0.7953,1.65343 0.29303,1.50803c0.75347,-0.0997 1.19297,-0.5442 1.49017,-0.90563c-0.2386,-0.457 -0.52323,-0.9098 -0.86647,-1.3585z"/>
<path fill="#000" d="m884.71518,204.75607c-0.7409,0.36973 -0.27207,1.35017 0.81627,0.6481c1.08833,-0.7021 1.0339,-1.5662 -0.81627,-0.6481z m-0.10883,-0.96797c-0.7409,0.3656 -0.27207,1.34604 0.81626,0.64394c1.08834,-0.7021 1.0339,-1.56204 -0.81626,-0.64394z m1.27253,-0.61483c-0.7451,0.36973 -0.2721,1.35017 0.81203,0.64807c1.08834,-0.70207 1.03394,-1.5662 -0.81203,-0.64807z m-0.8372,-1.04277c-0.7409,0.36977 -0.27207,1.35017 0.81627,0.6481c1.08833,-0.7021 1.0339,-1.5662 -0.81627,-0.6481z m1.306,-0.39466c-0.7409,0.36976 -0.27207,1.3502 0.81627,0.6481c1.0883,-0.7021 1.0339,-1.5662 -0.81627,-0.6481z m-0.94183,-0.9015c-0.7409,0.36976 -0.27207,1.3502 0.81626,0.6481c1.08834,-0.7021 1.0339,-1.5662 -0.81626,-0.6481z m1.52366,-0.6813c-0.74506,0.3656 -0.59856,1.346 0.48977,0.64806c1.0883,-0.70206 1.3604,-1.56616 -0.48977,-0.64806z m1.1595,-1.49557c-0.7409,0.36973 -0.5986,1.35017 0.48974,0.64807c1.08833,-0.70207 1.36043,-1.5662 -0.48974,-0.64807z m1.41484,-1.78223c-0.71997,0.0872 -1.52367,1.02613 -0.3265,0.8641c1.19716,-0.162 1.6869,-1.02614 0.3265,-0.8641z m0.19673,-1.83207c-0.67813,-0.26173 -1.08417,1.15077 -0.14233,1.36677c0.94183,0.21603 1.08833,-1.0095 0.14233,-1.36677z"/>
<g fill="#000" stroke="#000">
<path d="M900.27408,205.6742C898.66671,204.28247 898.26068,205.13414 898.91368,205.99824 899.56668,206.86234 899.07695,207.2944 897.66211,207.51044 896.24728,207.72644 894.12505,207.99647 893.25438,207.99647 892.38371,207.99647 891.35398,209.18464 893.41761,209.0766 895.48545,208.9686 898.96811,208.2665 899.89318,207.88847 900.81825,207.51044 901.57591,206.80834 900.27408,205.6742Z"/>
<path d="M903.42605,208.1045C902.09915,206.9205 901.63031,207.2404 901.95681,208.1045 902.28331,208.9686 901.68475,209.13064 900.81825,209.40067 899.94758,209.6707 896.51935,210.80484 895.05011,210.96687 893.58088,211.12887 893.25438,212.155 895.43105,212.101 897.60768,212.047 901.79358,210.31877 902.28331,209.99474 902.77305,209.6707 902.93631,209.0226 903.48048,209.34667 904.02465,209.6707 904.51438,209.0766 903.42605,208.1045Z"/>
<path d="M904.40555,211.56094C903.44281,212.13007 901.03591,213.17697 900.05641,213.447 899.07695,213.71704 898.26068,214.79717 900.32851,214.63517 902.39215,214.47314 904.84088,212.5829 905.49388,212.209 906.14688,211.83097 906.47338,211.56094 907.01755,211.61494 907.56171,211.66894 908.54121,210.91284 906.74545,209.94074 904.94971,208.9686 903.86138,209.45467 904.73205,210.21077 905.60271,210.96687 904.94971,211.2369 904.40555,211.56094Z"/>
</g>
<path fill="#000" d="M885.95898 183.93164C883.86594 183.95815 882.31171 186.65857 884.69922 188.27539C887.27352 190.02023 889.99395 186.04432 887.45312 184.38672C886.95474 184.0619 886.442 183.92552 885.95898 183.93164z M884.14648 185.97461L884.93359 186.02734C884.77035 186.83331 885.58629 188.05108 886.83789 187.75195C885.83325 188.50805 883.87442 187.64468 884.14648 185.97461z "/>
</g>
<path fill="none" stroke="#000" stroke-width="1.0425" d="M999.47518,257.00973C999.28261,324.85886 988.49561,397.95496 900.00201,432.77273 811.50422,397.95496 800.71722,324.85886 800.52468,257.00973Z"/>
<path fill="none" stroke="#000" stroke-width="1.0425" d="M999.47518,257.00973C999.55051,231.45203 998.11894,206.638 998.77194,184.89404 965.70351,170.20834 922.19135,167.18814 900.00201,167.18814 877.80851,167.18814 834.29632,170.20834 801.22788,184.89404 801.88088,206.638 800.45352,231.45203 800.52468,257.00973Z"/>
</g>
</svg>