<?xml version="1.0" encoding="iso-8859-1"?>
<!-- Generator: Adobe Illustrator 19.0.0, SVG Export Plug-In . SVG Version: 6.00 Build 0)  -->
<svg version="1.1" id="Capa_1" xmlns="http://www.w3.org/2000/svg" xmlns:xlink="http://www.w3.org/1999/xlink" x="0px" y="0px"
	 viewBox="0 0 512 512" style="enable-background:new 0 0 512 512;" xml:space="preserve">
<g transform="matrix(1.25 0 0 -1.25 0 45)">
	<g>
		<g>
			<g>
				<path style="fill:#EF2B2D;" d="M113.778-20.889H45.511C20.378-20.889,0-41.266,0-66.4v-68.267h113.778V-20.889z"/>
				<path style="fill:#EF2B2D;" d="M364.089-20.889H182.044v-113.778H409.6V-66.4C409.6-41.266,389.222-20.889,364.089-20.889"/>
				<path style="fill:#EF2B2D;" d="M182.044-316.711h182.044c25.134,0,45.511,20.378,45.511,51.2v62.578H182.044V-316.711z"/>
				<path style="fill:#EF2B2D;" d="M0-202.933v-62.578c0-30.822,20.378-51.2,45.511-51.2h68.267v113.778H0z"/>
			</g>
			<path style="fill:#002868;" d="M164.978-20.889h-33.496l-0.284-130.844h-0.353H0v-34.133h130.844h0.284l-0.284-130.844h34.133
				v130.844H409.6v34.133H164.978V-20.889z"/>
			<g>
				<path style="fill:#EDECEC;" d="M164.978-316.711h17.067v113.778H409.6v17.067H164.978V-316.711z"/>
				<path style="fill:#EDECEC;" d="M182.044-20.889h-17.067v-130.844H409.6v17.067H182.044V-20.889z"/>
				<path style="fill:#EDECEC;" d="M130.844-20.889h-17.067v-113.778H0v-17.067h130.844V-20.889z"/>
				<path style="fill:#EDECEC;" d="M0-185.867v-17.067h113.778v-113.778h17.067v130.844H0z"/>
			</g>
		</g>
	</g>
</g>
<g>
</g>
<g>
</g>
<g>
</g>
<g>
</g>
<g>
</g>
<g>
</g>
<g>
</g>
<g>
</g>
<g>
</g>
<g>
</g>
<g>
</g>
<g>
</g>
<g>
</g>
<g>
</g>
<g>
</g>
</svg>
