<?xml version="1.0" encoding="UTF-8" standalone="no"?>
<svg
   xmlns:dc="http://purl.org/dc/elements/1.1/"
   xmlns:cc="http://creativecommons.org/ns#"
   xmlns:rdf="http://www.w3.org/1999/02/22-rdf-syntax-ns#"
   xmlns:svg="http://www.w3.org/2000/svg"
   xmlns="http://www.w3.org/2000/svg"
   xmlns:sodipodi="http://sodipodi.sourceforge.net/DTD/sodipodi-0.dtd"
   xmlns:inkscape="http://www.inkscape.org/namespaces/inkscape"
   width="900.00006"
   height="375.5488"
   viewBox="-3 -6 24.000002 10.014635"
   id="svg2"
   version="1.1"
   inkscape:version="0.91 r13725"
   sodipodi:docname="Flag_of_East_Timor.svg">
  <metadata
     id="metadata27">
    <rdf:RDF>
      <cc:Work
         rdf:about="">
        <dc:format>image/svg+xml</dc:format>
        <dc:type
           rdf:resource="http://purl.org/dc/dcmitype/StillImage" />
        <dc:title></dc:title>
      </cc:Work>
    </rdf:RDF>
  </metadata>
  <defs
     id="defs25">
    <clipPath
       clipPathUnits="userSpaceOnUse"
       id="clipPath4266">
      <path
         inkscape:connector-curvature="0"
         style="fill:#ff0000;fill-rule:evenodd"
         d="m 8.5383511,-5.0073173 -0.05761,0.025855 -0.09021,0.087587 -0.01622,0.018995 -0.08816,0.1031496 -0.04226,0.017818 -0.0064,0.014959 -0.01439,0.03335 -0.174754,0.2200535 -0.0475,0.035998 -0.02956,0.062485 -0.01048,0.022454 -0.0073,0.00424 -0.03154,0.018601 -0.05562,0.012551 -0.05258,0.00222 -0.02995,0.00142 -0.02712,0.023056 -0.01394,0.029918 0.01716,0.039038 0.0023,0.00485 -0.03422,0.05502 -0.007,0.011317 -0.04954,0.052583 -0.05644,0.059656 -0.01923,0.053185 0.01601,0.037624 0.0083,0.019835 0.05941,0.059445 0.06333,0.037804 0.02327,0.025283 0.03455,0.037623 0.04855,0.015771 0.134092,0.017187 0.07687,0.034794 0.0586,0.010926 0.04656,0.02751 0.02872,-0.00304 0.03338,-0.056646 0.03211,-0.054599 0.07687,-0.080695 0.05436,-0.123767 0.0065,-0.014357 0.0058,-0.058031 -0.02221,-0.1951618 0.0079,-0.078679 0.05156,-0.074404 0.02327,-0.024079 0.03133,-0.032176 0.0152,-0.00301 1.8e-4,-0.011739 0.04611,-0.046924 0.0186,-0.018993 0.04389,-0.1150987 0.0027,-0.060047 0.0174,-0.040062 -0.0028,-0.016585 -0.01722,-0.1059482 -0.04449,-0.059265 -3.91e-4,-0.00422 -0.0054,-0.049364 -0.03016,-0.00725 z m 9.7586919,1.3871417 -0.03844,0.00485 -0.06938,0.00912 -0.06574,0.026066 -0.116694,0.064141 -0.159374,0.1405322 -0.143572,0.077264 -0.07443,0.034373 -0.06733,0.017818 -0.09463,0.067121 -0.0239,0.017006 -0.170481,0.068565 -0.09304,0.062486 -0.05237,0.019594 -0.102487,0.00548 -0.0255,0.013153 -0.03762,0.063298 -0.02531,0.00647 -0.0471,0.00789 -0.0067,-4.208e-4 -0.08921,-0.00403 -0.06327,-0.034163 -0.07483,-0.082923 -0.03844,-0.020648 -0.04879,-0.00382 -0.05238,0.024471 -0.09803,0.052583 -0.09328,0.072599 -0.02465,0.011317 -0.03278,0.014779 -0.230949,0.067753 -0.220025,0.1180783 -0.151878,0.056827 -0.105377,0.091019 -0.03154,0.012732 -4.47e-4,2.112e-4 -0.0036,-2.112e-4 -0.05863,-0.0022 -0.0081,0.00262 -0.150405,0.049122 -0.05062,-6.01e-4 -0.07865,-0.026066 -0.06814,-0.062696 -0.07522,-0.024471 -0.03317,-0.033771 -0.01355,-0.013575 -0.148659,-0.082321 -0.129244,-0.014959 -0.08515,-0.047918 -0.06878,-0.00909 -0.09,-0.059656 -0.05153,-0.052583 -0.126597,-0.029136 -0.01255,-0.00283 -0.119313,0.011919 -0.164039,0.063298 -0.07847,-0.037805 -0.05584,0.027691 -0.06977,0.059476 -0.03416,0.058241 -0.01418,0.053396 -0.104353,0.00202 -0.09442,0.0273 -0.0459,0.017187 -0.05361,0.020046 -0.0918,0.074194 -0.04289,0.03964 -0.0285,0.026517 -0.125181,0.053576 -0.08073,0.0075 -0.06125,0.047737 -0.07829,0.072599 -0.06065,0.00767 -0.08536,-0.024471 -0.03862,-0.010715 -0.08575,6.01e-4 -0.107603,0.031363 -0.01394,0.00382 -0.137763,-0.013545 -0.04045,0.00626 -0.04527,0.00608 -0.06432,0.032748 -0.07281,0.00912 -0.07221,0.00888 -0.271584,0.080093 -0.07425,0.00909 -0.224087,-0.08512 -0.06044,-0.00244 -0.09388,-0.034764 -0.09403,-0.00142 -0.120095,-0.070191 -0.08377,-0.029738 -0.07215,-0.011107 -0.06393,0.00587 -0.09367,-0.041476 -0.04671,-0.020829 -0.05192,-0.00566 -0.08798,0.027089 -0.02673,-0.00202 -0.04711,-0.00403 -0.01295,-0.00364 -0.05559,-0.015591 -0.0589,0.00325 -0.06065,0.00343 -0.07221,-0.012943 -0.157959,-0.00545 -0.01213,-0.00325 -0.0431,-0.010926 -0.05577,0.022665 -10e-4,0.00102 -0.05697,0.061673 -0.02588,0.015561 -0.1337,0.080906 -0.0645,0.023658 -0.107814,0.039249 -0.08837,0.0018 -0.0075,2.112e-4 -0.05078,0.021009 -0.09343,0.067362 -0.0661,0.02751 -0.117717,0.00647 -0.04349,-0.017397 -0.04894,0.00768 -0.02917,0.016404 -0.01171,0.00644 -0.104925,0.058874 -0.03883,0.00768 -0.113865,-0.030129 -0.06857,-0.029527 -0.127649,-0.00526 -0.04732,0.014357 -0.09243,-0.00485 -0.04686,-0.013966 -0.02977,-0.032357 -0.04205,-0.00222 -0.01357,0.00972 -0.007,0.025072 0.03898,0.081117 -0.01086,0.017999 -0.0063,0.010083 -0.04593,0.037834 -0.08187,0.015561 -0.0043,8.148e-4 -0.03699,0.00689 -0.07115,0.029106 -0.04373,0.00265 -0.06372,-0.023056 -0.0038,-0.00144 -0.04409,-0.015952 -1.8e-4,0 -0.09566,-0.034794 -0.04027,0.00102 -0.0121,0.014959 -0.05704,-0.010926 -0.01983,-0.018812 -0.09343,0.062305 -0.103148,0.035185 -0.112871,0.00322 -0.03049,0.017999 -0.0023,0.00545 -0.02206,0.049363 0.01174,0.00364 0.01454,0.035396 -0.02221,0.023056 -0.02528,0.00463 -0.05665,-0.041025 -0.06715,-0.00951 -0.04045,0.011107 -0.018,-9.94e-4 -0.07281,-0.00385 -0.129216,-0.041265 -0.0196,-0.00626 -0.07404,-0.00789 -0.08756,0.013755 -0.07603,0.020407 -0.123977,0.068565 -0.06739,0.010535 -0.125363,0.053185 -0.08271,0.017186 -0.02104,0.011137 -0.0081,0.00424 -0.03868,0.020407 -0.03052,0.00608 -0.06535,-0.0093 -0.08346,0.072177 -0.157147,0.03946 -0.09084,-0.00647 -0.0016,-6.01e-4 -0.0955,-0.029527 -0.195342,0.018601 -0.06267,0.0273 -0.04533,0.00385 -0.0372,0.00322 -0.05117,0.021852 -0.03194,0.013545 -0.09794,0.016795 -0.08331,0.053998 -0.054,0.010715 -0.137462,0.071365 -0.111637,0.03663 -0.07161,0.1156704 -0.0044,0.00707 -0.02648,0.054208 -0.02872,0.059265 -0.04773,0.0976712 -0.01439,0.061673 0.01616,0.1326764 -0.02847,0.089996 -0.04994,0.082922 0.02242,0.1085972 -0.0031,0.017397 0.02793,0.2501828 -0.018,0.058241 -0.02633,0.061673 -0.04286,0.054419 -0.08554,0.07907 -0.0661,0.028925 -0.185892,0.029707 -0.01336,0.00205 -0.08939,0.094029 -0.05599,0.032567 -0.04289,0.049543 -0.01842,0.040242 -0.03862,0.084728 -0.0042,0.00972 -0.0096,0.053396 0.004,0.062064 -0.03417,0.073231 -0.0076,0.016585 -0.0081,0.00891 -0.02062,0.022845 -0.01599,0.017788 -0.120305,0.2325749 -0.09689,0.046713 -0.07133,0.065947 c 0,0 0.03522,0.044223 0.03522,0.065856 0,0.021634 -0.0108,0.031227 -0.03672,0.061281 -0.02592,0.030046 -0.03726,0.047556 -0.03967,0.065586 -0.0024,0.018029 -0.03248,0.063719 -0.03248,0.063719 0,0 -0.05204,0.065345 -0.01737,0.07305 0.03467,0.00771 0.02312,0.026969 0.02312,0.050085 l 0,0.0732 -0.04238,0 c 0,0 -0.01541,0.080906 0.01541,0.1040222 0.03082,0.023116 0.05009,0.034674 0.04623,0.065495 -0.0039,0.030821 0.0077,0.050085 0.02697,0.065495 0.01926,0.015411 0.05779,-0.026969 0.0655,0.019263 0.0077,0.046232 0.05009,0.050085 0.0732,0.038527 0.02312,-0.011558 0.05393,-0.030821 0.0732,0.015411 0.01926,0.046232 0.04238,0.034674 0.05779,0.038527 0.01541,0.00385 0.04623,-0.053937 0.0655,-0.019263 0.01926,0.034674 0.100169,0.034674 0.119433,-0.00771 0.01926,-0.042379 0.01541,-0.1001696 0.05393,-0.084758 0.03853,0.015411 0.05393,0.00771 0.05393,-0.023116 0,-0.030821 0.0039,-0.046232 0.03082,-0.026969 0.02697,0.019263 0.05009,0 0.05394,-0.019263 0.0039,-0.019263 0.03853,-0.080906 0.10017,-0.061643 0.06164,0.019263 0.05009,-0.042379 0.107874,-0.026969 0.05779,0.015411 0.04238,0.011558 0.09632,-0.034674 0.05393,-0.046232 0.08091,-0.073201 0.10017,-0.080906 0.01926,-0.00771 0.0732,-0.092464 0.08091,-0.1155801 0.0077,-0.023116 0.03082,-0.050085 0.02312,-0.080906 -0.0077,-0.030821 0.01926,-0.1001695 0.01926,-0.1001695 0,0 0.03467,-0.050085 0.06164,-0.030821 0.02697,0.019263 0.05779,0.00385 0.05393,0.038527 -0.0039,0.034674 -0.0039,0.038527 0.02312,0.053937 0.02697,0.015411 0.03853,0.023116 0.03853,0.050085 0,0.026969 0.01541,0.053937 0.03467,0.065495 0.01926,0.011558 0.09632,0 0.09632,0 0,0 0.204192,0.1887809 0.242719,0.2041916 0.03853,0.015411 0.05009,0.042379 0.03082,0.065495 -0.01926,0.023116 -0.01156,0.042379 0.0077,0.05779 0.01926,0.015411 0.01926,0.042379 0.01926,0.069348 0,0.026969 0.0077,0.061642 -0.01926,0.061642 -0.02697,0 -0.03082,0.069348 -0.01156,0.077053 0.01926,0.00771 0.03082,0.034674 0.01156,0.042379 -0.01926,0.00771 -0.01541,0.046232 -0.04238,0.05779 -0.02697,0.011558 -0.02312,0.050085 -0.02312,0.073201 0,0.023116 0.02312,0.080906 0,0.080906 -0.02312,0 -0.05009,0.026969 -0.01541,0.046232 0.03467,0.019263 0.03853,0.065495 0.0077,0.05779 -0.03082,-0.00771 -0.04623,0.019263 -0.03853,0.061643 0.0077,0.042379 0.03082,0.05779 0.02697,0.084758 -0.0039,0.026969 0.01156,0.038527 0.02312,0.05779 0.01156,0.019263 0.01156,0.046232 0,0.061642 -0.01156,0.015411 0,0.046232 0.01156,0.061643 0.01156,0.015411 -0.01156,0.038527 -0.01156,0.038527 l -0.02697,0.042379 c 0,0 -0.138696,-0.023116 -0.169517,-0.023116 -0.03082,0 -0.0655,0.00771 -0.08091,0.011558 -0.01541,0.00385 -0.06164,0.038527 -0.06164,0.038527 0,0 -0.17337,0.1040222 -0.192634,0.1194328 -0.01926,0.015411 -0.02312,0.015411 -0.02312,0.042379 0,0.026969 -0.01926,0.050085 -0.03082,0.019263 C 4.667492,2.78051 4.640522,2.749689 4.621262,2.741983 4.602002,2.734273 4.555762,2.718867 4.548062,2.695751 4.540362,2.672635 4.505682,2.603287 4.505682,2.603287 c 0,0 -0.06935,-0.00385 -0.09246,-0.015411 C 4.390102,2.576318 4.359282,2.553202 4.328462,2.568613 4.297642,2.584024 4.220587,2.599434 4.220587,2.599434 c 0,0 -0.04238,-0.061642 -0.05009,-0.038527 -0.0077,0.023116 -0.03082,0.026969 -0.05394,0.015411 -0.02312,-0.011558 -0.03853,-0.019263 -0.04623,0.00385 -0.0077,0.023116 -0.03082,0.034674 -0.05009,0.019263 -0.01926,-0.015411 -0.08091,-0.026969 -0.09632,0 -0.01541,0.026969 -0.04238,0.0732 -0.03467,0.1040222 0.0077,0.030821 0.01541,0.038527 -0.01156,0.053937 -0.02697,0.015411 -0.03082,0.038527 -0.03467,0.065495 -0.0039,0.026969 -0.01156,0.092464 -0.0077,0.1155802 0.0039,0.023116 0.01541,0.053937 -0.01541,0.05779 -0.03082,0.00385 -0.02697,0.023116 0,0.038527 0.02697,0.015411 0.04238,0.030821 0.01926,0.046232 -0.02312,0.015411 0.05393,0.050085 0.02312,0.061642 -0.03082,0.011558 0.02312,0.030821 0.01541,0.073201 -0.0077,0.042379 0.0077,0.069348 0.03853,0.092464 0.03082,0.023116 0.03853,0.050085 0.02697,0.069348 -0.01156,0.019263 -0.01926,0.065495 -0.0039,0.088611 0.01541,0.023116 0.02697,0.00771 0.05009,0.00771 0.02312,0 0.03467,-0.011558 0.05009,0.015411 0.01541,0.026969 0.01926,0.030821 0.04238,0.038527 0.02312,0.00771 0.03467,0.019263 0.04238,0.042379 0.0077,0.023116 0.03082,0.050085 0.05009,0.065495 0.01926,0.015411 0.04238,0.00771 0.05779,0.011558 0.01541,0.00385 0.08091,0.034674 0.08091,0.034674 0,0 0.03467,0.034674 0.03082,0.069348 -0.0039,0.034674 -0.0077,0.1348435 -0.0077,0.1348435 0,0 0.01156,0.0732 0.03082,0.088611 0.01926,0.015411 0.03082,0.011558 0.03082,0.038527 0,0.026969 0.02312,0.030821 0.04238,0.030821 0.01926,0 0.02312,0.023116 0.03082,0.050085 0.0077,0.026969 0.02697,0.026969 0.04623,0.030821 0.01926,0.00385 0.03467,0.042379 0.02312,0.077053 -0.01156,0.034674 -0.02312,0.088611 0.0077,0.1117275 0.03082,0.023116 0.0077,0.046232 0.0039,0.069348 -0.0039,0.023116 0,0.1001692 0,0.1001692 l -0.0077,0.069348 0.05321,0.06998 0.08187,-0.047133 0.1216,-0.1069717 0.05571,-0.036691 0.03121,-0.020556 0.03477,-0.015985 0.08094,-0.037205 0.0847,-0.023867 0.35273,-0.00405 0.04873,0.00747 0.235405,-0.256022 0.05866,-0.067753 0.05887,-0.1013132 0.05032,-0.048339 0.02649,-0.010715 0.02832,0.025674 -0.0054,0.033379 0.01273,0.035366 0.04771,-0.032748 0.01905,-0.016374 L 6.100152,3.74598 6.150292,3.678047 6.215152,3.622003 6.361432,3.547388 6.451792,3.486709 6.569509,3.399753 6.609299,3.358397 6.682499,3.292902 6.779419,3.24059 6.967598,3.2197053 7.106295,3.2081473 7.234456,3.1623363 7.373603,3.1040953 7.510343,2.987191 7.693164,2.933193 7.884292,2.902642 8.004387,2.860774 8.176704,2.7293318 l 0.0039,-0.0012 0.08777,-0.02751 0.06793,-0.04247 0.0912,-0.0071 0.08575,0.018029 0.09385,0.0366 0.11525,0.065525 0.08897,0.028112 0.213191,-0.055412 0.02935,-0.041476 0.04205,6.01e-4 0.03299,-0.061462 0.06833,-0.066127 0.06959,-0.030761 0.05583,-0.00424 0.151458,0.017187 0.01694,-0.014749 0.02534,-0.00304 0.08533,-0.069167 0.105136,-0.043673 0.03076,-0.023056 0.08271,-0.018812 0.02023,-0.00142 0.07359,0.03964 0.04473,-0.061492 0.091799,-0.057218 0.04105,-0.038045 0.04066,-0.017788 0.09304,-0.017187 0.11266,0.00831 0.193145,0.048128 0.08614,-0.00222 0.04527,0.00506 0.07582,0.00849 0.0692,-0.00587 0.04569,-0.022845 0.09891,-0.037202 0.03844,-0.014357 0.190466,-0.1264157 0.204493,-0.1616015 0.247714,-0.1306297 0.09367,-0.067361 0.308994,-0.3110428 0.08356,-0.065917 0.188479,-0.1114565 0.125421,-0.060258 0.121751,-0.036992 0.0052,-0.011738 0.42271,-0.00608 0.111427,-0.010293 0.151277,0.01535 0.200399,0.00912 0.111637,-0.037022 0.167651,-0.078257 0.278898,-0.083735 0.123616,-0.031965 0.0301,0.0087 0.104594,-0.00707 0.184808,0.029136 0.07588,-0.00587 0.104533,-0.017186 0.145801,-0.078679 0.06838,-0.072809 0.0074,-0.026698 0.03462,-0.1203358 0.289612,-0.4356226 0.07016,-0.093036 0.146251,-0.1271982 0.02543,-0.013154 0.01562,-0.031543 0.02366,-0.00485 0.04085,-0.044697 0.03215,-0.014779 0.06571,0.041868 0.06393,-0.00222 0.09704,-0.071184 0.194981,-0.1431808 0.105767,-0.05764 0.238234,-0.062094 0.29491,-0.023447 0.01538,-0.014959 0.01839,0.011919 0.10658,-0.064111 0.04566,-0.016193 0.06209,0.012341 0.0233,0.025283 0.0487,0.00566 0.05544,0.020648 0.1278,-2.111e-4 0.03522,0.011137 0.0354,0.011528 0.07904,-0.00424 0.113081,-0.025704 0.0471,0.00385 0.111668,-0.055623 0.07826,-0.078046 0.13731,-0.1039618 0.08127,-0.044486 0.02028,1.803e-4 0.02366,-0.014749 0.02504,0.00686 0.05439,-0.051379 0.04389,-0.017788 0.10029,-0.09445 0.05929,-0.038015 0.03353,0.015381 0.0069,-0.016585 0.04067,-0.023056 0.06393,-0.0093 0.02691,0.00686 0.04226,-0.011317 0.136078,0.01821 0.0065,0.010113 0.05379,0.010505 0.05054,-9.94e-4 0.04226,-0.019835 0.233207,-0.2443137 0.04226,-0.044276 0.0546,-0.083314 0.109048,-0.1312617 0.207082,-0.2056964 0.06998,-0.094842 0.104925,-0.080906 0.04939,-0.00343 0.12169,-0.118891 0.09448,-0.02429 0.0645,-0.066338 0.101313,-0.050958 0.11877,-0.1178977 0.0242,-0.061703 0.03055,-0.034975 0.08476,-0.082923 0.04735,-0.019624 0.111427,-0.05764 0.06447,-0.059656 0.04268,-0.068144 0.08154,-0.098092 0.138093,-0.032357 0.03437,-0.04268 0.01662,-0.020407 0.018,-0.132285 -0.01433,-0.078679 -0.05017,-0.052372 -0.0072,-0.00746 -0.0059,-0.00608 -0.08698,-0.037624 -0.169639,-0.00665 -0.253011,-0.099507 -0.03967,-0.039038 -0.0085,-0.00828 -0.01596,-0.025102 -0.0552,-0.086143 -0.054,-0.063298 -0.02083,-0.024471 -0.04512,-0.027299 -0.06393,-0.00566 -0.04042,0.011317 -0.07179,0.069769 -0.136738,0.1326763 -0.02221,0.011739 -0.04879,0.026065 -0.09075,0.010715 -0.04274,-0.00241 -0.126958,-0.00749 -0.14583,-0.034975 -0.08392,-0.0093 -0.02857,-0.013574 -0.111426,-0.1150685 -0.06026,-0.030731 -0.0038,-6.01e-4 -0.121932,-0.017397 -0.128642,-0.086775 -0.02001,-0.00587 -0.06369,-0.018391 -0.169698,0 z m 2.552634,0.6360518 -0.03958,0.00283 -0.03218,0.023267 -0.02065,0.045088 -0.01695,0.031544 0.0083,0.018601 -0.01722,0.044908 0.03338,0.023868 0.02971,0.055623 0.0134,-0.00162 0.03837,0.032146 0.104985,-0.021822 0.01132,-0.00223 0.02206,-0.026698 0.01538,-0.031544 -0.04431,-0.114286 -0.105167,-0.079672 -8.66e-4,0 z m -20.9111469,5.5304472 -0.12154,8.148e-4 -0.125422,0.031152 -0.06634,0.032357 -0.03458,0.041055 -0.03777,0.025464 -0.08861,0.059265 -0.145649,0.039038 -0.202416,-0.00689 -0.02342,-7.802e-4 -0.031,0.010294 -0.03515,0.011739 -0.0606801,-0.00222 -0.04042,-0.00142 -0.01701,0.00728 -0.01701,0.00707 -0.01559,0.02143 -0.07215,0.067361 -0.07988,0.028715 -0.09671,0.034794 -0.01393,0.011107 -0.09222,0.074013 -0.04936,0.020859 -0.05418,0.00725 -0.07543,-0.00647 -0.02892,-0.00241 -0.0356,0.012732 -0.02588,0.027901 -0.071,0.010324 -0.09243,0.039038 -0.08957,0.037804 -0.036,0.027721 -0.03823,0.093036 -0.05583,0.1364989 -0.007,0.016584 -0.03257,0.021039 -0.120125,0.021009 -0.04933,0.022454 -0.01683,-0.00364 -0.03233,0.012762 -0.01679,0.020829 -0.03359,0.041868 -0.06227,0.00202 -0.04087,0.012521 -0.09466,0.090417 -0.04379,0.019203 -0.04789,-0.00644 -0.02312,-0.011558 -0.03853,0.00192 -0.01613,0.040152 -0.08963,0.031664 -0.03293,-0.012099 -0.05779,0.023116 -0.01243,0.022932 0.0086,0.050265 c 0,0 0.01156,0.026969 0.03853,0.030821 0.02697,0.00385 0.03467,0.015411 0.04238,0.038527 0.0077,0.023116 0.05393,0.038527 0.05393,0.038527 0,0 0.01541,0.034674 0.03082,0.061643 0.01541,0.026969 0.100169,0.1386962 0.123285,0.1579594 0.02312,0.019263 0.08476,0.1194328 0.08476,0.1194328 0,0 0.06164,0.015413 0.07705,0.015413 0.01541,0 0.01541,-0.030819 0.04623,-0.011558 0.03082,0.019261 0.03082,-0.034674 0.05393,-0.00387 0.02312,0.030819 0.02312,0.069348 0.04238,0.080906 0.01926,0.011558 0.03082,0.05779 0.05779,0.046232 0.02697,-0.011558 0.05394,-0.019261 0.06935,0 0.01541,0.019261 0.03082,0.019261 0.04238,-0.00387 0.01156,-0.023116 0.02312,-0.023116 0.04623,-0.023116 0.02312,0 0.03853,-0.00387 0.04238,-0.030819 0.0039,-0.026971 -0.01541,-0.038528 0.01541,-0.061643 0.03082,-0.023116 0.05779,-0.050086 0.05779,-0.050086 l -0.04238,-0.053938 0.05779,-0.038527 c 0,0 0.05009,0.00771 0.0732,-0.00771 0.02312,-0.015411 0.03853,-0.023116 0.03853,-0.023116 l 0.01541,-0.050085 0.07705,-0.00771 c 0,0 0.0039,-0.050085 0.03082,-0.046232 0.02697,0.00385 0.06164,-0.038527 0.08861,-0.019263 0.02697,0.019263 0.04623,0.00771 0.05779,0.030821 0.01156,0.023116 0.01541,0.019263 0.04238,0.019263 0.02697,0 0.03853,0.015411 0.04238,0.042379 0.0039,0.026969 0.04238,-0.00385 0.06164,0.038527 0.01926,0.042379 0.04238,0.069348 0.0732,0.065495 0.03082,-0.00385 0.04623,0.015411 0.04623,0.042379 0,0.026971 0.01541,0.050086 0.03082,0.069348 0.01541,0.019261 0.03082,0.092464 0.05009,0.1117279 0.01926,0.019261 0.01926,0.026971 0.0039,0.050086 -0.01541,0.023116 0.0077,0.034674 0.03853,0.05779 0.03082,0.023116 0.04623,0.073201 0.04623,0.073201 0,0 -0.03082,0.065495 -0.01541,0.1001693 0.01541,0.034674 0.02312,0.073201 0.02312,0.073201 0,0 -0.03853,0.019261 -0.03853,0.050086 0,0.030819 -0.01156,0.034674 -0.02312,0.053935 -0.01156,0.019261 -0.0077,0.065495 -0.0077,0.065495 l 0.0077,0.046232 c 0,0 0.06164,-0.00387 0.08091,-0.00387 0.01926,0 0.03467,-0.0077 0.05779,-0.038528 0.02312,-0.030819 0.03853,-0.038528 0.07705,-0.026971 0.03853,0.011558 0.05779,0.011558 0.0886101,-0.011558 0.03082,-0.023116 0.0655,-0.05779 0.08861,-0.050086 0.02312,0.0077 0.02697,-0.00387 0.04623,-0.011558 0.01926,-0.0077 0.02697,-0.019261 0.05009,0 0.02312,0.019261 0.02312,0.015413 0.04623,-0.0077 0.02312,-0.023116 0.02312,-0.046232 0.02312,-0.0732 0,-0.026971 0,-0.05779 0.03467,-0.065496 0.03467,-0.0077 0.03853,-0.030819 0.03082,-0.05779 -0.0077,-0.026971 -0.03082,-0.096316 -0.05779,-0.096316 -0.02697,0 -0.04623,-0.026971 -0.04623,-0.061643 0,-0.034674 -0.0077,-0.053935 0.03467,-0.069348 0.04238,-0.015413 0.06164,-0.050086 0.06164,-0.050086 l 0.03467,-0.077053 c 0,0 0.07705,-0.015413 0.05009,-0.030819 -0.02697,-0.015413 -0.02312,-0.034674 0.01156,-0.04238 0.03467,-0.00771 0.03853,-0.038527 0.03467,-0.061643 -0.0039,-0.023116 -0.01541,-0.038527 -0.01541,-0.053937 0,-0.015411 -0.05009,-0.042379 -0.05009,-0.042379 l 0.04238,-0.038527 c 0,0 0,-0.038527 0.0077,-0.053937 0.0077,-0.015411 0.02312,-0.053937 0.03853,-0.030821 0.01541,0.023116 0.03467,0.011558 0.05779,-0.00385 0.02312,-0.015411 0.06935,-0.050085 0.06935,-0.050085 0,0 -0.0077,-0.1040221 0.03853,-0.1040221 0.04623,0 0.08091,0 0.104021,-0.015411 0.02312,-0.015411 0.03082,-0.030821 0.05394,-0.015411 0.02312,0.015411 0.06935,0.015411 0.06935,-0.023116 0,-0.038527 0.0077,-0.1155801 0.0077,-0.1155801 0,0 0.04623,-0.069348 0.06935,-0.050085 0.02312,0.019263 0.03853,0.00771 0.03853,0.00771 l 0.05009,-0.042379 0.0039,-0.061642 c 0,0 -0.05394,-0.046232 -0.05394,-0.073201 0,-0.026969 0.0077,-0.061643 -0.0039,-0.092464 -0.01156,-0.030821 -0.01541,-0.042379 0.02312,-0.0732 0.03853,-0.030821 0.05779,-0.084758 0.05779,-0.084758 0,0 0,-0.080906 0.0077,-0.1271381 0.0077,-0.046232 0.01156,-0.080906 0.01156,-0.096316 0,-0.015411 0.0077,-0.080906 0.0077,-0.080906 l 0.09246,-0.073201 -0.03193,-0.165153 -0.08605,-0.019022 -0.04165,-0.014749 -0.0083,-0.00298 -0.08043,-0.028384 z"
         id="path4268" />
    </clipPath>
  </defs>
  <sodipodi:namedview
     pagecolor="#ffffff"
     bordercolor="#666666"
     borderopacity="1"
     objecttolerance="10"
     gridtolerance="10"
     guidetolerance="10"
     inkscape:pageopacity="0"
     inkscape:pageshadow="2"
     inkscape:window-width="1366"
     inkscape:window-height="716"
     id="namedview23"
     showgrid="false"
     inkscape:zoom="0.93515625"
     inkscape:cx="450"
     inkscape:cy="150.54884"
     inkscape:window-x="-8"
     inkscape:window-y="-8"
     inkscape:window-maximized="1"
     inkscape:current-layer="svg2"
     fit-margin-top="0"
     fit-margin-left="0"
     fit-margin-right="0"
     fit-margin-bottom="0" />
  <g
     id="g4261"
     clip-path="url(#clipPath4266)"
     transform="translate(0,-0.9926827)">
    <path
       id="path8"
       d="M -3,-6 -3,6 5,0 Z"
       inkscape:connector-curvature="0"
       style="fill:#000000" />
    <path
       style="fill:#dc241f;fill-opacity:1;stroke:none"
       transform="matrix(0.02666667,0,0,0.02666667,-3,-6)"
       id="path4"
       d="M 0,0 450,225 0,450 900,450 900,0 0,0 Z"
       inkscape:connector-curvature="0" />
    <path
       style="fill:#ffc726;fill-opacity:1"
       transform="matrix(0.02666667,0,0,0.02666667,-3,-6)"
       id="path6"
       d="M 0,0 300,225 0,450 450,225 0,0 Z"
       inkscape:connector-curvature="0" />
  </g>
  <!--         -arctan(0.5) v   -->
</svg>
